<svg xmlns="http://www.w3.org/2000/svg" xmlns:xlink="http://www.w3.org/1999/xlink" width="500" zoomAndPan="magnify" viewBox="0 0 375 374.999991" height="500" preserveAspectRatio="xMidYMid meet" version="1.0"><defs><g/><clipPath id="d01b56b68e"><path d="M 97.5 26 L 277.5 26 L 277.5 320 L 97.5 320 Z M 97.5 26 " clip-rule="nonzero"/></clipPath></defs><g clip-path="url(#d01b56b68e)"><path fill="#502273" d="M 151.839844 100.972656 L 151.839844 76.597656 C 151.839844 73.203125 153.835938 70.40625 157.035156 69.007812 L 158.234375 68.605469 L 263.914062 27.851562 L 266.710938 26.851562 C 269.308594 25.855469 271.90625 26.253906 274.105469 27.652344 C 276.300781 29.25 277.5 31.449219 277.5 34.246094 L 277.5 93.578125 C 277.5 96.976562 275.503906 99.773438 272.304688 101.171875 L 271.105469 101.570312 L 122.671875 158.90625 C 119.476562 160.105469 117.476562 163.101562 117.476562 166.5 L 117.476562 179.484375 C 117.476562 182.28125 118.675781 184.476562 120.875 186.078125 C 123.070312 187.675781 125.867188 187.875 128.265625 186.875 L 263.714844 134.335938 L 266.511719 133.335938 C 269.109375 132.335938 271.707031 132.734375 273.902344 134.132812 C 276.101562 135.734375 277.300781 138.128906 277.300781 140.726562 L 277.300781 196.066406 C 277.300781 199.460938 275.300781 202.257812 272.105469 203.457031 L 270.90625 203.855469 L 227.15625 220.839844 C 223.960938 222.035156 221.960938 225.035156 221.960938 228.230469 L 221.960938 283.96875 C 221.960938 287.164062 220.363281 289.761719 217.566406 291.160156 L 216.367188 291.757812 L 165.824219 317.53125 L 162.828125 318.929688 C 160.230469 320.328125 157.433594 320.128906 155.035156 318.53125 C 152.640625 316.929688 151.242188 314.535156 151.242188 311.738281 L 151.242188 218.441406 C 151.242188 215.042969 153.238281 212.246094 156.433594 210.847656 L 160.429688 209.25 C 163.027344 208.25 165.625 208.652344 167.820312 210.050781 C 170.019531 211.648438 171.21875 213.84375 171.21875 216.640625 L 171.21875 278.773438 C 171.21875 281.570312 172.617188 284.167969 175.015625 285.566406 C 177.410156 287.164062 180.207031 287.164062 182.804688 285.964844 L 197.1875 278.574219 C 199.984375 277.175781 201.585938 274.578125 201.585938 271.382812 L 201.585938 214.246094 C 201.585938 210.847656 203.582031 208.050781 206.777344 206.851562 L 207.976562 206.453125 L 251.730469 189.472656 C 254.925781 188.273438 256.921875 185.277344 256.921875 182.082031 L 256.921875 169.695312 C 256.921875 166.898438 255.722656 164.699219 253.527344 163.101562 C 251.328125 161.503906 248.730469 161.304688 246.136719 162.304688 L 164.824219 193.867188 L 124.667969 209.449219 L 110.683594 214.84375 L 107.886719 215.84375 C 105.292969 216.84375 102.695312 216.441406 100.496094 215.042969 C 98.300781 213.445312 97.101562 211.046875 97.101562 208.453125 L 97.101562 152.515625 C 97.101562 149.117188 99.097656 146.320312 102.292969 144.921875 L 103.492188 144.523438 L 126.667969 135.53125 L 193.195312 109.761719 L 251.929688 86.988281 C 255.125 85.789062 257.121094 82.792969 257.121094 79.394531 L 257.121094 62.8125 C 257.121094 60.015625 255.925781 57.820312 253.726562 56.222656 C 251.527344 54.621094 248.933594 54.421875 246.335938 55.421875 L 176.8125 82.191406 C 173.617188 83.390625 171.617188 86.386719 171.617188 89.785156 L 171.617188 98.972656 C 171.617188 102.371094 169.621094 105.167969 166.421875 106.566406 L 162.429688 108.164062 C 159.832031 109.160156 157.234375 108.761719 155.035156 107.363281 C 152.839844 105.765625 151.640625 103.566406 151.640625 100.769531 Z M 151.839844 100.972656 " fill-opacity="1" fill-rule="evenodd"/></g><g fill="#502273" fill-opacity="1"><g transform="translate(11.418805, 358.153175)"><g><path d="M 5.488281 -13.105469 C 5.714844 -13.105469 5.964844 -13.105469 6.191406 -13.105469 C 6.414062 -13.105469 6.667969 -13.183594 6.890625 -13.183594 C 7.144531 -13.183594 7.367188 -13.132812 7.59375 -13.132812 C 7.84375 -13.132812 8.070312 -13.105469 8.296875 -13.105469 C 8.546875 -13.105469 8.773438 -13.183594 9.023438 -13.183594 C 9.246094 -13.183594 9.472656 -13.105469 9.722656 -13.105469 C 9.949219 -13.105469 10.175781 -13.183594 10.425781 -13.183594 C 10.726562 -13.183594 10.953125 -13.183594 11.175781 -13.257812 C 11.402344 -13.359375 11.578125 -13.507812 11.703125 -13.757812 C 11.777344 -13.960938 11.878906 -14.183594 11.90625 -14.484375 C 11.929688 -14.8125 11.878906 -15.0625 11.828125 -15.238281 C 11.730469 -15.511719 11.578125 -15.6875 11.328125 -15.765625 C 11.101562 -15.8125 10.851562 -15.839844 10.574219 -15.839844 C 10.351562 -15.839844 10.125 -15.8125 9.898438 -15.8125 C 9.699219 -15.8125 9.472656 -15.863281 9.246094 -15.863281 C 9.023438 -15.863281 8.820312 -15.839844 8.597656 -15.839844 C 8.371094 -15.839844 8.144531 -15.8125 7.917969 -15.839844 C 7.71875 -15.839844 7.492188 -15.839844 7.269531 -15.839844 C 7.042969 -15.839844 6.84375 -15.839844 6.617188 -15.839844 C 6.390625 -15.839844 6.164062 -15.890625 5.964844 -15.890625 C 5.738281 -15.890625 5.511719 -15.914062 5.289062 -15.914062 C 5.085938 -15.890625 4.863281 -15.863281 4.636719 -15.839844 C 4.4375 -15.839844 4.234375 -15.789062 4.035156 -15.765625 C 3.835938 -15.765625 3.609375 -15.789062 3.433594 -15.789062 C 3.207031 -15.789062 3.007812 -15.738281 2.832031 -15.738281 C 2.457031 -15.714844 2.40625 -15.988281 2.179688 -15.765625 C 1.953125 -15.511719 2.15625 -15.488281 2.105469 -15.0625 C 2.082031 -14.863281 2.128906 -14.609375 2.105469 -14.359375 C 2.082031 -14.136719 2.03125 -13.910156 2.003906 -13.660156 C 2.003906 -13.507812 2.03125 -13.234375 2.054688 -12.957031 C 2.054688 -12.679688 1.980469 -12.429688 1.980469 -12.253906 C 1.980469 -12.03125 1.953125 -11.804688 1.953125 -11.578125 C 1.953125 -11.328125 1.980469 -11.101562 1.953125 -10.875 C 1.953125 -10.625 2.003906 -10.402344 2.003906 -10.175781 C 2.003906 -9.949219 2.003906 -9.699219 2.003906 -9.472656 C 1.980469 -9.246094 1.980469 -8.996094 1.980469 -8.773438 C 1.980469 -8.546875 1.929688 -8.320312 1.929688 -8.070312 C 1.929688 -7.84375 1.953125 -7.617188 1.953125 -7.367188 C 1.953125 -7.144531 1.980469 -6.917969 1.980469 -6.691406 C 1.980469 -6.441406 1.90625 -6.214844 1.90625 -5.988281 C 1.878906 -5.738281 1.980469 -5.511719 1.980469 -5.289062 C 1.980469 -5.0625 1.953125 -4.8125 1.953125 -4.585938 C 1.953125 -4.359375 1.90625 -4.109375 1.90625 -3.882812 C 1.90625 -3.660156 1.953125 -3.433594 1.953125 -3.183594 C 1.953125 -2.957031 1.878906 -2.730469 1.878906 -2.480469 C 1.855469 -2.207031 1.878906 -1.980469 1.878906 -1.730469 C 1.90625 -1.503906 1.953125 -1.253906 1.929688 -0.953125 C 1.929688 -0.652344 2.003906 -0.425781 2.179688 -0.277344 C 2.355469 -0.148438 2.632812 -0.125 2.90625 -0.0742188 C 3.132812 -0.0507812 3.382812 0 3.660156 0 C 3.910156 0 4.136719 0 4.261719 -0.101562 C 4.460938 -0.199219 4.511719 -0.425781 4.5625 -0.601562 C 4.613281 -0.828125 4.613281 -1.027344 4.636719 -1.203125 C 4.660156 -1.429688 4.710938 -1.652344 4.738281 -1.878906 C 4.738281 -2.105469 4.6875 -2.355469 4.6875 -2.582031 C 4.6875 -2.808594 4.6875 -3.03125 4.6875 -3.257812 C 4.660156 -3.484375 4.6875 -3.710938 4.660156 -3.933594 C 4.660156 -4.160156 4.660156 -4.386719 4.636719 -4.613281 C 4.636719 -4.8125 4.660156 -5.011719 4.660156 -5.210938 C 4.6875 -5.414062 4.660156 -5.613281 4.660156 -5.789062 C 4.6875 -6.140625 4.5625 -6.164062 4.761719 -6.367188 C 4.988281 -6.589844 4.988281 -6.414062 5.363281 -6.441406 C 5.539062 -6.464844 5.738281 -6.464844 5.964844 -6.464844 C 6.164062 -6.464844 6.367188 -6.492188 6.589844 -6.464844 C 6.792969 -6.492188 7.015625 -6.492188 7.21875 -6.464844 C 7.417969 -6.464844 7.644531 -6.492188 7.84375 -6.492188 C 8.070312 -6.492188 8.269531 -6.464844 8.496094 -6.464844 C 8.695312 -6.464844 8.921875 -6.492188 9.121094 -6.515625 C 9.324219 -6.515625 9.546875 -6.492188 9.773438 -6.515625 C 10 -6.566406 10.148438 -6.765625 10.277344 -6.96875 C 10.402344 -7.144531 10.449219 -7.367188 10.527344 -7.59375 C 10.601562 -7.820312 10.675781 -8.019531 10.675781 -8.195312 C 10.652344 -8.445312 10.550781 -8.621094 10.402344 -8.773438 C 10.277344 -8.898438 10.101562 -9.023438 9.847656 -9.074219 C 9.597656 -9.121094 9.324219 -9.148438 9.074219 -9.171875 C 8.796875 -9.171875 8.519531 -9.121094 8.269531 -9.121094 C 8.042969 -9.121094 7.820312 -9.199219 7.570312 -9.199219 C 7.34375 -9.199219 7.117188 -9.199219 6.867188 -9.199219 C 6.640625 -9.199219 6.414062 -9.148438 6.164062 -9.148438 C 5.941406 -9.148438 5.714844 -9.121094 5.464844 -9.121094 C 5.238281 -9.121094 5.011719 -9.148438 4.785156 -9.148438 C 4.785156 -9.398438 4.8125 -9.597656 4.8125 -9.824219 C 4.8125 -10.050781 4.738281 -10.277344 4.738281 -10.476562 C 4.738281 -10.703125 4.8125 -10.925781 4.8125 -11.152344 C 4.8125 -11.351562 4.761719 -11.578125 4.761719 -11.804688 C 4.761719 -12.03125 4.761719 -12.253906 4.761719 -12.480469 C 4.761719 -12.679688 4.8125 -12.882812 4.8125 -13.105469 C 5.039062 -13.105469 5.238281 -13.105469 5.488281 -13.105469 Z M 5.488281 -13.105469 "/></g></g></g><g fill="#502273" fill-opacity="1"><g transform="translate(30.565425, 358.153175)"><g><path d="M 13.40625 -9.046875 C 13.40625 -9.246094 13.308594 -9.449219 13.308594 -9.648438 C 13.28125 -9.875 13.257812 -10.074219 13.234375 -10.277344 C 13.207031 -10.476562 13.234375 -10.703125 13.183594 -10.902344 C 13.105469 -11.128906 12.980469 -11.328125 12.933594 -11.578125 C 12.855469 -11.804688 12.808594 -12.03125 12.730469 -12.253906 C 12.65625 -12.480469 12.605469 -12.730469 12.507812 -12.933594 C 12.429688 -13.15625 12.355469 -13.382812 12.230469 -13.609375 C 12.128906 -13.808594 12.003906 -14.035156 11.855469 -14.210938 C 11.730469 -14.410156 11.578125 -14.609375 11.402344 -14.785156 C 11.226562 -14.9375 11.003906 -15.039062 10.800781 -15.1875 C 10.601562 -15.3125 10.402344 -15.4375 10.175781 -15.539062 C 9.976562 -15.636719 9.722656 -15.6875 9.5 -15.765625 C 9.273438 -15.8125 9.046875 -15.890625 8.796875 -15.9375 C 8.570312 -15.988281 8.34375 -16.015625 8.09375 -16.015625 C 7.871094 -16.039062 7.617188 -16.039062 7.394531 -16.039062 C 7.144531 -16.039062 6.917969 -16.039062 6.667969 -15.988281 C 6.441406 -15.964844 6.214844 -15.914062 5.964844 -15.863281 C 5.738281 -15.8125 5.488281 -15.8125 5.261719 -15.738281 C 5.039062 -15.636719 4.835938 -15.511719 4.636719 -15.386719 C 4.410156 -15.289062 4.234375 -15.164062 4.035156 -15.011719 C 3.835938 -14.886719 3.582031 -14.8125 3.410156 -14.636719 C 3.234375 -14.484375 3.109375 -14.285156 2.933594 -14.085938 C 2.808594 -13.910156 2.65625 -13.707031 2.53125 -13.507812 C 2.40625 -13.308594 2.332031 -13.058594 2.253906 -12.832031 C 2.15625 -12.632812 2.082031 -12.40625 2.003906 -12.15625 C 1.953125 -11.929688 1.855469 -11.703125 1.804688 -11.476562 C 1.753906 -11.226562 1.652344 -11.003906 1.605469 -10.777344 C 1.554688 -10.527344 1.578125 -10.277344 1.554688 -10.050781 C 1.527344 -9.800781 1.503906 -9.574219 1.480469 -9.324219 C 1.453125 -9.097656 1.402344 -8.847656 1.402344 -8.621094 C 1.378906 -8.371094 1.378906 -8.144531 1.402344 -7.894531 C 1.402344 -7.644531 1.429688 -7.417969 1.453125 -7.167969 C 1.453125 -6.941406 1.453125 -6.691406 1.480469 -6.441406 C 1.503906 -6.214844 1.554688 -5.988281 1.605469 -5.738281 C 1.652344 -5.511719 1.628906 -5.261719 1.703125 -5.011719 C 1.753906 -4.8125 1.878906 -4.613281 1.929688 -4.386719 C 2.003906 -4.160156 2.054688 -3.933594 2.128906 -3.734375 C 2.207031 -3.507812 2.304688 -3.308594 2.40625 -3.109375 C 2.507812 -2.90625 2.605469 -2.707031 2.707031 -2.507812 C 2.832031 -2.304688 2.980469 -2.128906 3.109375 -1.929688 C 3.257812 -1.730469 3.382812 -1.554688 3.558594 -1.378906 C 3.734375 -1.203125 3.910156 -1.027344 4.085938 -0.878906 C 4.261719 -0.726562 4.484375 -0.601562 4.6875 -0.476562 C 4.886719 -0.351562 5.113281 -0.226562 5.3125 -0.125 C 5.539062 -0.0234375 5.789062 0.0234375 6.015625 0.0742188 C 6.242188 0.148438 6.492188 0.175781 6.714844 0.226562 C 6.96875 0.25 7.191406 0.25 7.445312 0.25 C 7.667969 0.25 7.917969 0.25 8.144531 0.199219 C 8.394531 0.175781 8.621094 0.125 8.847656 0.0507812 C 9.074219 -0.0234375 9.296875 -0.101562 9.523438 -0.199219 C 9.75 -0.300781 9.949219 -0.425781 10.148438 -0.550781 C 10.351562 -0.703125 10.550781 -0.800781 10.75 -0.976562 C 10.925781 -1.128906 11.128906 -1.253906 11.304688 -1.429688 C 11.453125 -1.605469 11.578125 -1.828125 11.703125 -2.03125 C 11.828125 -2.230469 11.953125 -2.40625 12.078125 -2.605469 C 12.179688 -2.78125 12.304688 -2.980469 12.40625 -3.183594 C 12.507812 -3.382812 12.582031 -3.582031 12.679688 -3.808594 C 12.757812 -4.011719 12.808594 -4.234375 12.882812 -4.4375 C 12.957031 -4.660156 13.058594 -4.863281 13.105469 -5.0625 C 13.15625 -5.289062 13.234375 -5.511719 13.28125 -5.738281 C 13.308594 -5.941406 13.332031 -6.164062 13.359375 -6.390625 C 13.382812 -6.617188 13.40625 -6.84375 13.433594 -7.066406 C 13.433594 -7.292969 13.433594 -7.519531 13.433594 -7.746094 C 13.433594 -7.96875 13.433594 -8.195312 13.433594 -8.421875 C 13.40625 -8.621094 13.433594 -8.820312 13.40625 -9.046875 Z M 4.011719 -8.472656 C 4.035156 -8.695312 4.011719 -8.898438 4.035156 -9.121094 C 4.058594 -9.324219 4.058594 -9.546875 4.085938 -9.75 C 4.109375 -9.976562 4.160156 -10.175781 4.210938 -10.375 C 4.234375 -10.601562 4.3125 -10.800781 4.359375 -11.003906 C 4.410156 -11.226562 4.4375 -11.476562 4.535156 -11.679688 C 4.660156 -11.878906 4.785156 -12.078125 4.914062 -12.253906 C 5.0625 -12.457031 5.261719 -12.605469 5.4375 -12.757812 C 5.613281 -12.882812 5.8125 -13.03125 6.015625 -13.132812 C 6.214844 -13.234375 6.441406 -13.359375 6.667969 -13.40625 C 6.890625 -13.484375 7.144531 -13.484375 7.367188 -13.484375 C 7.59375 -13.484375 7.820312 -13.484375 8.042969 -13.40625 C 8.246094 -13.359375 8.445312 -13.234375 8.644531 -13.105469 C 8.847656 -13.007812 9.046875 -12.933594 9.222656 -12.78125 C 9.398438 -12.632812 9.523438 -12.429688 9.675781 -12.253906 C 9.800781 -12.078125 9.925781 -11.90625 10.050781 -11.679688 C 10.148438 -11.503906 10.226562 -11.277344 10.300781 -11.050781 C 10.375 -10.828125 10.449219 -10.601562 10.5 -10.375 C 10.550781 -10.148438 10.601562 -9.925781 10.652344 -9.699219 C 10.675781 -9.449219 10.703125 -9.222656 10.726562 -8.996094 C 10.75 -8.746094 10.800781 -8.519531 10.828125 -8.296875 C 10.828125 -8.042969 10.800781 -7.820312 10.800781 -7.59375 C 10.800781 -7.34375 10.800781 -7.117188 10.777344 -6.867188 C 10.75 -6.640625 10.703125 -6.414062 10.652344 -6.164062 C 10.601562 -5.941406 10.550781 -5.714844 10.5 -5.488281 C 10.425781 -5.261719 10.351562 -5.039062 10.25 -4.8125 C 10.175781 -4.585938 10.074219 -4.386719 9.976562 -4.210938 C 9.875 -4.011719 9.75 -3.808594 9.625 -3.660156 C 9.472656 -3.484375 9.324219 -3.308594 9.148438 -3.183594 C 8.972656 -3.03125 8.773438 -2.957031 8.570312 -2.855469 C 8.371094 -2.757812 8.144531 -2.757812 7.917969 -2.730469 C 7.71875 -2.679688 7.492188 -2.632812 7.269531 -2.65625 C 7.042969 -2.679688 6.816406 -2.707031 6.617188 -2.78125 C 6.390625 -2.832031 6.164062 -2.933594 5.988281 -3.03125 C 5.789062 -3.132812 5.613281 -3.28125 5.464844 -3.433594 C 5.289062 -3.582031 5.136719 -3.757812 5.011719 -3.960938 C 4.886719 -4.136719 4.8125 -4.359375 4.738281 -4.5625 C 4.636719 -4.761719 4.585938 -4.988281 4.511719 -5.210938 C 4.4375 -5.414062 4.359375 -5.640625 4.3125 -5.839844 C 4.261719 -6.066406 4.234375 -6.289062 4.183594 -6.515625 C 4.160156 -6.742188 4.085938 -6.96875 4.058594 -7.167969 C 4.011719 -7.394531 3.984375 -7.617188 3.933594 -7.84375 C 3.960938 -8.042969 3.984375 -8.269531 4.011719 -8.472656 Z M 4.011719 -8.472656 "/></g></g></g><g fill="#502273" fill-opacity="1"><g transform="translate(51.866957, 358.153175)"><g><path d="M 5.488281 -13.105469 C 5.714844 -13.105469 5.964844 -13.105469 6.191406 -13.105469 C 6.414062 -13.105469 6.667969 -13.183594 6.890625 -13.183594 C 7.144531 -13.183594 7.367188 -13.132812 7.59375 -13.132812 C 7.84375 -13.132812 8.070312 -13.105469 8.296875 -13.105469 C 8.546875 -13.105469 8.773438 -13.183594 9.023438 -13.183594 C 9.246094 -13.183594 9.472656 -13.105469 9.722656 -13.105469 C 9.949219 -13.105469 10.175781 -13.183594 10.425781 -13.183594 C 10.726562 -13.183594 10.953125 -13.183594 11.175781 -13.257812 C 11.402344 -13.359375 11.578125 -13.507812 11.703125 -13.757812 C 11.777344 -13.960938 11.878906 -14.183594 11.90625 -14.484375 C 11.929688 -14.8125 11.878906 -15.0625 11.828125 -15.238281 C 11.730469 -15.511719 11.578125 -15.6875 11.328125 -15.765625 C 11.101562 -15.8125 10.851562 -15.839844 10.574219 -15.839844 C 10.351562 -15.839844 10.125 -15.8125 9.898438 -15.8125 C 9.699219 -15.8125 9.472656 -15.863281 9.246094 -15.863281 C 9.023438 -15.863281 8.820312 -15.839844 8.597656 -15.839844 C 8.371094 -15.839844 8.144531 -15.8125 7.917969 -15.839844 C 7.71875 -15.839844 7.492188 -15.839844 7.269531 -15.839844 C 7.042969 -15.839844 6.84375 -15.839844 6.617188 -15.839844 C 6.390625 -15.839844 6.164062 -15.890625 5.964844 -15.890625 C 5.738281 -15.890625 5.511719 -15.914062 5.289062 -15.914062 C 5.085938 -15.890625 4.863281 -15.863281 4.636719 -15.839844 C 4.4375 -15.839844 4.234375 -15.789062 4.035156 -15.765625 C 3.835938 -15.765625 3.609375 -15.789062 3.433594 -15.789062 C 3.207031 -15.789062 3.007812 -15.738281 2.832031 -15.738281 C 2.457031 -15.714844 2.40625 -15.988281 2.179688 -15.765625 C 1.953125 -15.511719 2.15625 -15.488281 2.105469 -15.0625 C 2.082031 -14.863281 2.128906 -14.609375 2.105469 -14.359375 C 2.082031 -14.136719 2.03125 -13.910156 2.003906 -13.660156 C 2.003906 -13.507812 2.03125 -13.234375 2.054688 -12.957031 C 2.054688 -12.679688 1.980469 -12.429688 1.980469 -12.253906 C 1.980469 -12.03125 1.953125 -11.804688 1.953125 -11.578125 C 1.953125 -11.328125 1.980469 -11.101562 1.953125 -10.875 C 1.953125 -10.625 2.003906 -10.402344 2.003906 -10.175781 C 2.003906 -9.949219 2.003906 -9.699219 2.003906 -9.472656 C 1.980469 -9.246094 1.980469 -8.996094 1.980469 -8.773438 C 1.980469 -8.546875 1.929688 -8.320312 1.929688 -8.070312 C 1.929688 -7.84375 1.953125 -7.617188 1.953125 -7.367188 C 1.953125 -7.144531 1.980469 -6.917969 1.980469 -6.691406 C 1.980469 -6.441406 1.90625 -6.214844 1.90625 -5.988281 C 1.878906 -5.738281 1.980469 -5.511719 1.980469 -5.289062 C 1.980469 -5.0625 1.953125 -4.8125 1.953125 -4.585938 C 1.953125 -4.359375 1.90625 -4.109375 1.90625 -3.882812 C 1.90625 -3.660156 1.953125 -3.433594 1.953125 -3.183594 C 1.953125 -2.957031 1.878906 -2.730469 1.878906 -2.480469 C 1.855469 -2.207031 1.878906 -1.980469 1.878906 -1.730469 C 1.90625 -1.503906 1.953125 -1.253906 1.929688 -0.953125 C 1.929688 -0.652344 2.003906 -0.425781 2.179688 -0.277344 C 2.355469 -0.148438 2.632812 -0.125 2.90625 -0.0742188 C 3.132812 -0.0507812 3.382812 0 3.660156 0 C 3.910156 0 4.136719 0 4.261719 -0.101562 C 4.460938 -0.199219 4.511719 -0.425781 4.5625 -0.601562 C 4.613281 -0.828125 4.613281 -1.027344 4.636719 -1.203125 C 4.660156 -1.429688 4.710938 -1.652344 4.738281 -1.878906 C 4.738281 -2.105469 4.6875 -2.355469 4.6875 -2.582031 C 4.6875 -2.808594 4.6875 -3.03125 4.6875 -3.257812 C 4.660156 -3.484375 4.6875 -3.710938 4.660156 -3.933594 C 4.660156 -4.160156 4.660156 -4.386719 4.636719 -4.613281 C 4.636719 -4.8125 4.660156 -5.011719 4.660156 -5.210938 C 4.6875 -5.414062 4.660156 -5.613281 4.660156 -5.789062 C 4.6875 -6.140625 4.5625 -6.164062 4.761719 -6.367188 C 4.988281 -6.589844 4.988281 -6.414062 5.363281 -6.441406 C 5.539062 -6.464844 5.738281 -6.464844 5.964844 -6.464844 C 6.164062 -6.464844 6.367188 -6.492188 6.589844 -6.464844 C 6.792969 -6.492188 7.015625 -6.492188 7.21875 -6.464844 C 7.417969 -6.464844 7.644531 -6.492188 7.84375 -6.492188 C 8.070312 -6.492188 8.269531 -6.464844 8.496094 -6.464844 C 8.695312 -6.464844 8.921875 -6.492188 9.121094 -6.515625 C 9.324219 -6.515625 9.546875 -6.492188 9.773438 -6.515625 C 10 -6.566406 10.148438 -6.765625 10.277344 -6.96875 C 10.402344 -7.144531 10.449219 -7.367188 10.527344 -7.59375 C 10.601562 -7.820312 10.675781 -8.019531 10.675781 -8.195312 C 10.652344 -8.445312 10.550781 -8.621094 10.402344 -8.773438 C 10.277344 -8.898438 10.101562 -9.023438 9.847656 -9.074219 C 9.597656 -9.121094 9.324219 -9.148438 9.074219 -9.171875 C 8.796875 -9.171875 8.519531 -9.121094 8.269531 -9.121094 C 8.042969 -9.121094 7.820312 -9.199219 7.570312 -9.199219 C 7.34375 -9.199219 7.117188 -9.199219 6.867188 -9.199219 C 6.640625 -9.199219 6.414062 -9.148438 6.164062 -9.148438 C 5.941406 -9.148438 5.714844 -9.121094 5.464844 -9.121094 C 5.238281 -9.121094 5.011719 -9.148438 4.785156 -9.148438 C 4.785156 -9.398438 4.8125 -9.597656 4.8125 -9.824219 C 4.8125 -10.050781 4.738281 -10.277344 4.738281 -10.476562 C 4.738281 -10.703125 4.8125 -10.925781 4.8125 -11.152344 C 4.8125 -11.351562 4.761719 -11.578125 4.761719 -11.804688 C 4.761719 -12.03125 4.761719 -12.253906 4.761719 -12.480469 C 4.761719 -12.679688 4.8125 -12.882812 4.8125 -13.105469 C 5.039062 -13.105469 5.238281 -13.105469 5.488281 -13.105469 Z M 5.488281 -13.105469 "/></g></g></g><g fill="#502273" fill-opacity="1"><g transform="translate(71.013576, 358.153175)"><g><path d="M 5.039062 -2.832031 C 5.261719 -2.808594 5.488281 -2.757812 5.714844 -2.757812 C 5.964844 -2.757812 6.191406 -2.757812 6.414062 -2.757812 C 6.640625 -2.757812 6.867188 -2.78125 7.09375 -2.78125 C 7.316406 -2.78125 7.542969 -2.78125 7.769531 -2.78125 C 7.996094 -2.808594 8.246094 -2.855469 8.496094 -2.855469 C 8.773438 -2.832031 9.023438 -2.808594 9.246094 -2.808594 C 9.675781 -2.78125 9.675781 -2.933594 10 -2.78125 C 10.277344 -2.65625 10.101562 -2.53125 10.300781 -2.230469 C 10.402344 -2.082031 10.550781 -1.929688 10.652344 -1.730469 C 10.75 -1.554688 10.828125 -1.378906 10.902344 -1.179688 C 11.003906 -1.003906 11.101562 -0.800781 11.128906 -0.625 C 11.203125 -0.351562 11.328125 -0.226562 11.453125 -0.125 C 11.605469 -0.0234375 11.777344 -0.0234375 12.03125 -0.0234375 C 12.207031 -0.0234375 12.429688 0 12.65625 0 C 12.90625 0 13.105469 -0.0507812 13.28125 -0.0742188 C 13.558594 -0.125 13.734375 -0.199219 13.808594 -0.351562 C 13.882812 -0.5 13.859375 -0.703125 13.757812 -0.976562 C 13.683594 -1.152344 13.609375 -1.378906 13.507812 -1.605469 C 13.433594 -1.804688 13.40625 -2.054688 13.308594 -2.253906 C 13.234375 -2.480469 13.082031 -2.65625 13.007812 -2.882812 C 12.90625 -3.109375 12.832031 -3.308594 12.730469 -3.535156 C 12.65625 -3.734375 12.632812 -3.984375 12.554688 -4.183594 C 12.457031 -4.410156 12.332031 -4.613281 12.253906 -4.8125 C 12.179688 -5.039062 12.054688 -5.238281 11.980469 -5.4375 C 11.90625 -5.640625 11.855469 -5.863281 11.777344 -6.066406 C 11.703125 -6.265625 11.578125 -6.464844 11.503906 -6.667969 C 11.429688 -6.890625 11.328125 -7.09375 11.253906 -7.292969 C 11.175781 -7.492188 11.128906 -7.71875 11.050781 -7.917969 C 10.976562 -8.144531 10.902344 -8.34375 10.828125 -8.546875 C 10.726562 -8.746094 10.652344 -8.945312 10.550781 -9.171875 C 10.476562 -9.375 10.449219 -9.597656 10.375 -9.800781 C 10.300781 -10.023438 10.148438 -10.199219 10.074219 -10.402344 C 10 -10.601562 9.949219 -10.828125 9.875 -11.027344 C 9.773438 -11.253906 9.75 -11.453125 9.675781 -11.679688 C 9.597656 -11.878906 9.472656 -12.078125 9.375 -12.28125 C 9.296875 -12.480469 9.246094 -12.707031 9.171875 -12.90625 C 9.074219 -13.105469 8.996094 -13.308594 8.921875 -13.535156 C 8.847656 -13.734375 8.722656 -13.933594 8.644531 -14.136719 C 8.570312 -14.335938 8.472656 -14.535156 8.394531 -14.738281 C 8.269531 -15.0625 8.246094 -15.3125 8.144531 -15.464844 C 7.945312 -15.765625 7.746094 -15.8125 7.492188 -15.839844 C 7.292969 -15.863281 7.066406 -15.863281 6.742188 -15.839844 C 6.515625 -15.839844 6.390625 -15.8125 6.191406 -15.664062 C 6.089844 -15.5625 5.914062 -15.464844 5.765625 -15.238281 C 5.6875 -15.085938 5.664062 -14.886719 5.5625 -14.660156 C 5.488281 -14.484375 5.386719 -14.308594 5.3125 -14.109375 C 5.238281 -13.910156 5.1875 -13.683594 5.113281 -13.457031 C 5.039062 -13.257812 4.960938 -13.058594 4.886719 -12.832031 C 4.8125 -12.632812 4.738281 -12.40625 4.660156 -12.207031 C 4.585938 -11.980469 4.484375 -11.777344 4.410156 -11.554688 C 4.335938 -11.351562 4.335938 -11.101562 4.261719 -10.902344 C 4.183594 -10.675781 4.058594 -10.5 3.984375 -10.277344 C 3.910156 -10.074219 3.882812 -9.847656 3.808594 -9.625 C 3.734375 -9.398438 3.609375 -9.222656 3.535156 -8.996094 C 3.484375 -8.796875 3.410156 -8.570312 3.332031 -8.34375 C 3.257812 -8.144531 3.207031 -7.917969 3.132812 -7.71875 C 3.058594 -7.492188 2.980469 -7.292969 2.90625 -7.066406 C 2.832031 -6.867188 2.78125 -6.640625 2.707031 -6.414062 C 2.632812 -6.214844 2.480469 -6.015625 2.40625 -5.8125 C 2.332031 -5.613281 2.355469 -5.363281 2.28125 -5.136719 C 2.207031 -4.9375 2.128906 -4.738281 2.054688 -4.511719 C 1.980469 -4.3125 1.828125 -4.109375 1.753906 -3.910156 C 1.679688 -3.683594 1.679688 -3.457031 1.605469 -3.257812 C 1.527344 -3.03125 1.429688 -2.832031 1.351562 -2.632812 C 1.304688 -2.507812 1.203125 -2.230469 1.078125 -1.929688 C 1.003906 -1.703125 0.925781 -1.453125 0.828125 -1.226562 C 0.726562 -0.902344 0.675781 -0.625 0.675781 -0.5 C 0.625 -0.0742188 0.777344 0.0234375 1.101562 0.0234375 C 1.328125 0.0507812 1.605469 0 1.929688 0.0234375 C 2.15625 0.0507812 2.457031 0.0507812 2.730469 0 C 3.007812 -0.0507812 3.207031 -0.148438 3.359375 -0.402344 C 3.457031 -0.601562 3.582031 -0.777344 3.660156 -0.976562 C 3.734375 -1.179688 3.808594 -1.378906 3.882812 -1.578125 C 3.960938 -1.78125 4.011719 -1.980469 4.109375 -2.179688 C 4.183594 -2.382812 4.234375 -2.605469 4.335938 -2.808594 C 4.5625 -2.808594 4.8125 -2.832031 5.039062 -2.832031 Z M 5.363281 -6.164062 C 5.4375 -6.390625 5.511719 -6.589844 5.589844 -6.792969 C 5.664062 -7.015625 5.738281 -7.21875 5.8125 -7.445312 C 5.890625 -7.644531 5.964844 -7.84375 6.066406 -8.042969 C 6.140625 -8.269531 6.191406 -8.472656 6.289062 -8.671875 C 6.367188 -8.898438 6.515625 -9.074219 6.589844 -9.273438 C 6.667969 -9.472656 6.667969 -9.722656 6.742188 -9.949219 C 6.816406 -10.148438 6.941406 -10.375 7.015625 -10.601562 C 7.144531 -10.375 7.21875 -10.125 7.316406 -9.949219 C 7.445312 -9.722656 7.59375 -9.546875 7.695312 -9.347656 C 7.820312 -9.148438 7.894531 -8.921875 7.96875 -8.722656 C 8.070312 -8.519531 8.144531 -8.296875 8.21875 -8.09375 C 8.320312 -7.871094 8.421875 -7.667969 8.496094 -7.445312 C 8.597656 -7.242188 8.722656 -7.042969 8.796875 -6.84375 C 8.898438 -6.617188 8.921875 -6.390625 8.996094 -6.164062 C 9.097656 -5.964844 9.199219 -5.765625 9.296875 -5.539062 C 9.046875 -5.539062 8.847656 -5.511719 8.621094 -5.511719 C 8.371094 -5.511719 8.144531 -5.511719 7.917969 -5.511719 C 7.667969 -5.511719 7.445312 -5.5625 7.21875 -5.5625 C 6.992188 -5.5625 6.765625 -5.539062 6.515625 -5.539062 C 6.289062 -5.539062 6.066406 -5.539062 5.8125 -5.539062 C 5.589844 -5.539062 5.339844 -5.511719 5.085938 -5.511719 C 5.164062 -5.738281 5.289062 -5.964844 5.363281 -6.164062 Z M 5.363281 -6.164062 "/></g></g></g><g fill="#502273" fill-opacity="1"><g transform="translate(91.989365, 358.153175)"><g><path d="M 4.835938 -9.222656 C 4.9375 -9.222656 5.113281 -8.972656 5.3125 -8.644531 C 5.414062 -8.472656 5.589844 -8.269531 5.714844 -8.042969 C 5.839844 -7.84375 5.941406 -7.617188 6.039062 -7.394531 C 6.164062 -7.167969 6.242188 -6.917969 6.339844 -6.742188 C 6.464844 -6.542969 6.617188 -6.367188 6.742188 -6.164062 C 6.84375 -5.964844 6.96875 -5.765625 7.09375 -5.5625 C 7.21875 -5.386719 7.292969 -5.164062 7.417969 -4.988281 C 7.542969 -4.785156 7.746094 -4.636719 7.84375 -4.4375 C 7.96875 -4.234375 8.121094 -4.058594 8.246094 -3.859375 C 8.371094 -3.683594 8.472656 -3.484375 8.597656 -3.28125 C 8.746094 -3.082031 8.871094 -2.90625 8.996094 -2.707031 C 9.121094 -2.507812 9.199219 -2.304688 9.324219 -2.105469 C 9.449219 -1.90625 9.597656 -1.730469 9.722656 -1.527344 C 9.847656 -1.328125 9.949219 -1.101562 10.074219 -0.902344 C 10.226562 -0.726562 10.402344 -0.550781 10.574219 -0.402344 C 10.75 -0.277344 10.953125 -0.148438 11.175781 -0.0742188 C 11.402344 0 11.628906 0 11.90625 0 C 12.179688 0 12.378906 0 12.53125 -0.0234375 C 12.808594 -0.101562 12.882812 -0.25 12.933594 -0.476562 C 12.957031 -0.652344 12.957031 -0.851562 12.980469 -1.128906 C 12.980469 -1.351562 12.957031 -1.578125 12.980469 -1.804688 C 12.980469 -2.03125 13.03125 -2.253906 13.058594 -2.480469 C 13.058594 -2.707031 13.007812 -2.933594 13.007812 -3.15625 C 13.007812 -3.382812 13.03125 -3.609375 13.03125 -3.835938 C 13.03125 -4.058594 13.082031 -4.285156 13.082031 -4.511719 C 13.082031 -4.738281 13.03125 -4.960938 13.058594 -5.210938 C 13.058594 -5.4375 13.105469 -5.664062 13.105469 -5.890625 C 13.105469 -6.113281 13.132812 -6.339844 13.132812 -6.566406 C 13.132812 -6.792969 13.082031 -7.015625 13.082031 -7.242188 C 13.082031 -7.46875 13.15625 -7.695312 13.15625 -7.917969 C 13.15625 -8.171875 13.15625 -8.394531 13.15625 -8.621094 C 13.183594 -8.847656 13.132812 -9.074219 13.132812 -9.296875 C 13.132812 -9.523438 13.132812 -9.75 13.132812 -9.976562 C 13.132812 -10.199219 13.183594 -10.425781 13.183594 -10.652344 C 13.183594 -10.875 13.207031 -11.101562 13.207031 -11.304688 C 13.207031 -11.554688 13.15625 -11.777344 13.15625 -11.980469 C 13.15625 -12.230469 13.234375 -12.457031 13.234375 -12.679688 C 13.234375 -12.90625 13.207031 -13.132812 13.207031 -13.359375 C 13.207031 -13.582031 13.207031 -13.808594 13.207031 -14.035156 C 13.207031 -14.285156 13.257812 -14.484375 13.234375 -14.6875 C 13.207031 -14.9375 13.183594 -15.164062 13.105469 -15.339844 C 13.007812 -15.5625 12.855469 -15.714844 12.632812 -15.789062 C 12.457031 -15.863281 12.230469 -15.8125 11.980469 -15.8125 C 11.777344 -15.789062 11.554688 -15.789062 11.304688 -15.738281 C 11.128906 -15.714844 10.925781 -15.613281 10.703125 -15.539062 C 10.703125 -15.339844 10.652344 -15.164062 10.652344 -14.910156 C 10.625 -14.710938 10.652344 -14.484375 10.652344 -14.261719 C 10.652344 -14.035156 10.601562 -13.808594 10.601562 -13.582031 C 10.601562 -13.359375 10.652344 -13.132812 10.652344 -12.90625 C 10.652344 -12.707031 10.601562 -12.480469 10.601562 -12.253906 C 10.601562 -12.03125 10.625 -11.804688 10.625 -11.578125 C 10.625 -11.351562 10.550781 -11.128906 10.550781 -10.902344 C 10.550781 -10.703125 10.625 -10.476562 10.625 -10.25 C 10.625 -10.023438 10.574219 -9.800781 10.574219 -9.574219 C 10.574219 -9.347656 10.550781 -9.121094 10.550781 -8.921875 C 10.550781 -8.695312 10.574219 -8.472656 10.574219 -8.246094 C 10.574219 -8.019531 10.550781 -7.792969 10.550781 -7.59375 C 10.527344 -7.34375 10.5 -7.117188 10.5 -6.941406 C 10.476562 -6.515625 10.476562 -6.265625 10.449219 -6.289062 C 10.226562 -6.316406 10.050781 -6.542969 9.875 -6.792969 C 9.722656 -7.042969 9.597656 -7.34375 9.5 -7.492188 C 9.375 -7.667969 9.199219 -7.84375 9.097656 -8.019531 C 8.972656 -8.21875 8.847656 -8.421875 8.722656 -8.621094 C 8.597656 -8.796875 8.546875 -9.023438 8.421875 -9.222656 C 8.296875 -9.421875 8.121094 -9.574219 7.996094 -9.773438 C 7.894531 -9.976562 7.769531 -10.148438 7.644531 -10.351562 C 7.519531 -10.550781 7.417969 -10.75 7.292969 -10.953125 C 7.167969 -11.152344 7.066406 -11.351562 6.96875 -11.554688 C 6.84375 -11.730469 6.714844 -11.929688 6.589844 -12.128906 C 6.464844 -12.332031 6.390625 -12.53125 6.265625 -12.730469 C 6.164062 -12.933594 5.988281 -13.082031 5.863281 -13.28125 C 5.738281 -13.457031 5.664062 -13.683594 5.539062 -13.859375 C 5.414062 -14.058594 5.261719 -14.234375 5.136719 -14.4375 C 5.039062 -14.636719 4.914062 -14.835938 4.8125 -15.011719 C 4.660156 -15.289062 4.535156 -15.4375 4.386719 -15.589844 C 4.210938 -15.738281 4.035156 -15.789062 3.757812 -15.8125 C 3.582031 -15.839844 3.332031 -15.839844 3.058594 -15.8125 C 2.65625 -15.839844 2.429688 -15.839844 2.28125 -15.839844 C 1.980469 -15.8125 1.953125 -15.714844 1.953125 -15.261719 C 1.953125 -15.039062 2.003906 -14.8125 2.003906 -14.585938 C 2.003906 -14.359375 2.003906 -14.136719 2.003906 -13.910156 C 2.003906 -13.683594 1.929688 -13.457031 1.929688 -13.234375 C 1.929688 -13.007812 1.953125 -12.78125 1.953125 -12.554688 C 1.953125 -12.332031 1.929688 -12.105469 1.953125 -11.878906 C 1.953125 -11.652344 1.980469 -11.429688 1.980469 -11.203125 C 1.980469 -10.976562 2.003906 -10.75 2.003906 -10.527344 C 2.003906 -10.300781 1.980469 -10.074219 1.980469 -9.847656 C 1.980469 -9.625 1.929688 -9.398438 1.929688 -9.199219 C 1.953125 -8.972656 2.003906 -8.746094 2.003906 -8.519531 C 2.003906 -8.296875 2.03125 -8.070312 2.03125 -7.84375 C 2.03125 -7.617188 2.003906 -7.394531 2.003906 -7.167969 C 2.003906 -6.941406 2.003906 -6.714844 2.003906 -6.492188 C 2.003906 -6.289062 2.03125 -6.039062 2.03125 -5.8125 C 2.03125 -5.589844 2.003906 -5.363281 2.003906 -5.113281 C 2.003906 -4.886719 2.003906 -4.660156 2.003906 -4.410156 C 2.003906 -4.183594 1.953125 -3.960938 1.953125 -3.710938 C 1.953125 -3.484375 2.003906 -3.257812 2.003906 -3.03125 C 2.003906 -2.78125 1.980469 -2.554688 1.953125 -2.332031 C 1.953125 -2.105469 1.980469 -1.855469 1.980469 -1.628906 C 1.980469 -1.402344 1.953125 -1.152344 1.953125 -0.953125 C 1.953125 -0.652344 2.003906 -0.449219 2.105469 -0.300781 C 2.207031 -0.125 2.382812 0 2.632812 0.0507812 C 2.808594 0.101562 3.03125 0.125 3.28125 0.125 C 3.558594 0.125 3.785156 0.101562 3.984375 0.0507812 C 4.234375 0 4.4375 -0.101562 4.5625 -0.300781 C 4.660156 -0.449219 4.6875 -0.675781 4.710938 -0.953125 C 4.710938 -1.128906 4.710938 -1.351562 4.6875 -1.578125 C 4.6875 -1.804688 4.6875 -2.003906 4.6875 -2.230469 C 4.660156 -2.457031 4.660156 -2.679688 4.660156 -2.855469 C 4.660156 -3.109375 4.660156 -3.359375 4.660156 -3.582031 C 4.636719 -3.835938 4.636719 -4.058594 4.636719 -4.285156 C 4.636719 -4.535156 4.636719 -4.785156 4.636719 -5.011719 C 4.636719 -5.261719 4.660156 -5.488281 4.660156 -5.738281 C 4.660156 -5.964844 4.710938 -6.214844 4.710938 -6.441406 C 4.710938 -6.691406 4.660156 -6.917969 4.660156 -7.167969 C 4.660156 -7.394531 4.660156 -7.644531 4.660156 -7.894531 C 4.660156 -8.121094 4.660156 -8.34375 4.636719 -8.621094 C 4.660156 -8.898438 4.5625 -9.273438 4.835938 -9.222656 Z M 4.835938 -9.222656 "/></g></g></g><g fill="#502273" fill-opacity="1"><g transform="translate(113.541474, 358.153175)"><g><path d="M 7.667969 -13.058594 C 7.917969 -13.058594 8.171875 -13.03125 8.371094 -13.03125 C 8.621094 -13.03125 8.847656 -13.03125 9.074219 -13.03125 C 9.324219 -13.03125 9.546875 -13.03125 9.773438 -13.03125 C 10.074219 -13.03125 10.300781 -13.105469 10.476562 -13.207031 C 10.675781 -13.332031 10.828125 -13.507812 10.875 -13.785156 C 10.925781 -13.984375 10.953125 -14.234375 10.953125 -14.511719 C 10.953125 -14.761719 10.902344 -14.988281 10.851562 -15.164062 C 10.800781 -15.386719 10.675781 -15.589844 10.476562 -15.664062 C 10.324219 -15.738281 10.101562 -15.765625 9.824219 -15.765625 C 9.597656 -15.765625 9.375 -15.765625 9.148438 -15.789062 C 8.921875 -15.789062 8.671875 -15.765625 8.445312 -15.765625 C 8.21875 -15.765625 7.996094 -15.789062 7.769531 -15.789062 C 7.542969 -15.789062 7.316406 -15.765625 7.09375 -15.765625 C 6.867188 -15.765625 6.640625 -15.8125 6.390625 -15.8125 C 6.164062 -15.8125 5.941406 -15.765625 5.714844 -15.765625 C 5.488281 -15.765625 5.261719 -15.789062 5.039062 -15.789062 C 4.8125 -15.789062 4.585938 -15.789062 4.335938 -15.789062 C 4.109375 -15.8125 3.882812 -15.839844 3.660156 -15.863281 C 3.433594 -15.863281 3.207031 -15.839844 2.980469 -15.839844 C 2.757812 -15.839844 2.53125 -15.863281 2.28125 -15.863281 C 2.054688 -15.863281 1.828125 -15.863281 1.605469 -15.863281 C 1.378906 -15.890625 1.101562 -15.863281 0.953125 -15.738281 C 0.800781 -15.589844 0.675781 -15.414062 0.625 -15.238281 C 0.550781 -15.011719 0.601562 -14.785156 0.601562 -14.609375 C 0.625 -14.386719 0.527344 -14.136719 0.550781 -13.910156 C 0.578125 -13.683594 0.675781 -13.484375 0.902344 -13.308594 C 1.050781 -13.183594 1.253906 -13.082031 1.503906 -13.082031 C 1.703125 -13.058594 1.953125 -13.082031 2.15625 -13.058594 C 2.40625 -13.058594 2.65625 -13.058594 2.882812 -13.03125 C 3.132812 -13.007812 3.382812 -13.007812 3.582031 -12.980469 C 4.035156 -12.957031 4.085938 -13.183594 4.3125 -12.90625 C 4.535156 -12.632812 4.3125 -12.605469 4.3125 -12.15625 C 4.3125 -11.929688 4.285156 -11.679688 4.3125 -11.402344 C 4.3125 -11.152344 4.359375 -10.902344 4.359375 -10.652344 C 4.359375 -10.449219 4.285156 -10.226562 4.285156 -9.976562 C 4.285156 -9.75 4.3125 -9.523438 4.3125 -9.296875 C 4.3125 -9.074219 4.285156 -8.847656 4.285156 -8.621094 C 4.285156 -8.394531 4.261719 -8.171875 4.261719 -7.945312 C 4.261719 -7.71875 4.285156 -7.46875 4.285156 -7.242188 C 4.285156 -7.015625 4.285156 -6.792969 4.285156 -6.566406 C 4.285156 -6.339844 4.3125 -6.113281 4.3125 -5.890625 C 4.3125 -5.664062 4.335938 -5.414062 4.335938 -5.1875 C 4.335938 -4.960938 4.285156 -4.738281 4.3125 -4.511719 C 4.3125 -4.285156 4.335938 -4.058594 4.335938 -3.835938 C 4.335938 -3.609375 4.359375 -3.382812 4.359375 -3.15625 C 4.359375 -2.933594 4.3125 -2.707031 4.3125 -2.480469 C 4.3125 -2.253906 4.3125 -2.03125 4.335938 -1.804688 C 4.335938 -1.578125 4.359375 -1.351562 4.359375 -1.128906 C 4.359375 -0.777344 4.386719 -0.550781 4.460938 -0.375 C 4.5625 -0.0742188 4.738281 0.0507812 5.011719 0.0742188 C 5.238281 0.0742188 5.488281 0.0507812 5.789062 0.0507812 C 6.113281 0.0234375 6.339844 -0.0234375 6.515625 -0.0742188 C 6.84375 -0.125 6.941406 -0.25 7.015625 -0.476562 C 7.09375 -0.652344 7.117188 -0.878906 7.117188 -1.179688 C 7.117188 -1.402344 7.09375 -1.652344 7.09375 -1.90625 C 7.09375 -2.128906 7.117188 -2.382812 7.09375 -2.632812 C 7.09375 -2.855469 7.066406 -3.109375 7.066406 -3.359375 C 7.066406 -3.582031 7.09375 -3.835938 7.09375 -4.058594 C 7.09375 -4.3125 7.042969 -4.5625 7.042969 -4.785156 C 7.042969 -5.039062 7.144531 -5.261719 7.144531 -5.511719 C 7.144531 -5.738281 7.144531 -5.988281 7.117188 -6.214844 C 7.117188 -6.464844 7.09375 -6.714844 7.09375 -6.941406 C 7.09375 -7.167969 7.117188 -7.394531 7.117188 -7.617188 C 7.117188 -7.84375 7.042969 -8.070312 7.042969 -8.296875 C 7.042969 -8.519531 7.015625 -8.746094 7.015625 -8.972656 C 7.015625 -9.199219 6.992188 -9.421875 6.992188 -9.648438 C 6.992188 -9.875 6.992188 -10.101562 6.992188 -10.324219 C 6.992188 -10.550781 6.96875 -10.777344 6.96875 -11.003906 C 6.96875 -11.226562 7.015625 -11.453125 7.015625 -11.703125 C 7.015625 -11.90625 6.992188 -12.128906 6.992188 -12.378906 C 6.96875 -12.605469 7.015625 -12.78125 6.992188 -13.03125 C 7.242188 -13.03125 7.445312 -13.058594 7.667969 -13.058594 Z M 7.667969 -13.058594 "/></g></g></g><g fill="#502273" fill-opacity="1"><g transform="translate(131.510402, 358.153175)"><g><path d="M 7.667969 -13.058594 C 7.917969 -13.058594 8.171875 -13.03125 8.371094 -13.03125 C 8.621094 -13.03125 8.847656 -13.03125 9.074219 -13.03125 C 9.324219 -13.03125 9.546875 -13.03125 9.773438 -13.03125 C 10.074219 -13.03125 10.300781 -13.105469 10.476562 -13.207031 C 10.675781 -13.332031 10.828125 -13.507812 10.875 -13.785156 C 10.925781 -13.984375 10.953125 -14.234375 10.953125 -14.511719 C 10.953125 -14.761719 10.902344 -14.988281 10.851562 -15.164062 C 10.800781 -15.386719 10.675781 -15.589844 10.476562 -15.664062 C 10.324219 -15.738281 10.101562 -15.765625 9.824219 -15.765625 C 9.597656 -15.765625 9.375 -15.765625 9.148438 -15.789062 C 8.921875 -15.789062 8.671875 -15.765625 8.445312 -15.765625 C 8.21875 -15.765625 7.996094 -15.789062 7.769531 -15.789062 C 7.542969 -15.789062 7.316406 -15.765625 7.09375 -15.765625 C 6.867188 -15.765625 6.640625 -15.8125 6.390625 -15.8125 C 6.164062 -15.8125 5.941406 -15.765625 5.714844 -15.765625 C 5.488281 -15.765625 5.261719 -15.789062 5.039062 -15.789062 C 4.8125 -15.789062 4.585938 -15.789062 4.335938 -15.789062 C 4.109375 -15.8125 3.882812 -15.839844 3.660156 -15.863281 C 3.433594 -15.863281 3.207031 -15.839844 2.980469 -15.839844 C 2.757812 -15.839844 2.53125 -15.863281 2.28125 -15.863281 C 2.054688 -15.863281 1.828125 -15.863281 1.605469 -15.863281 C 1.378906 -15.890625 1.101562 -15.863281 0.953125 -15.738281 C 0.800781 -15.589844 0.675781 -15.414062 0.625 -15.238281 C 0.550781 -15.011719 0.601562 -14.785156 0.601562 -14.609375 C 0.625 -14.386719 0.527344 -14.136719 0.550781 -13.910156 C 0.578125 -13.683594 0.675781 -13.484375 0.902344 -13.308594 C 1.050781 -13.183594 1.253906 -13.082031 1.503906 -13.082031 C 1.703125 -13.058594 1.953125 -13.082031 2.15625 -13.058594 C 2.40625 -13.058594 2.65625 -13.058594 2.882812 -13.03125 C 3.132812 -13.007812 3.382812 -13.007812 3.582031 -12.980469 C 4.035156 -12.957031 4.085938 -13.183594 4.3125 -12.90625 C 4.535156 -12.632812 4.3125 -12.605469 4.3125 -12.15625 C 4.3125 -11.929688 4.285156 -11.679688 4.3125 -11.402344 C 4.3125 -11.152344 4.359375 -10.902344 4.359375 -10.652344 C 4.359375 -10.449219 4.285156 -10.226562 4.285156 -9.976562 C 4.285156 -9.75 4.3125 -9.523438 4.3125 -9.296875 C 4.3125 -9.074219 4.285156 -8.847656 4.285156 -8.621094 C 4.285156 -8.394531 4.261719 -8.171875 4.261719 -7.945312 C 4.261719 -7.71875 4.285156 -7.46875 4.285156 -7.242188 C 4.285156 -7.015625 4.285156 -6.792969 4.285156 -6.566406 C 4.285156 -6.339844 4.3125 -6.113281 4.3125 -5.890625 C 4.3125 -5.664062 4.335938 -5.414062 4.335938 -5.1875 C 4.335938 -4.960938 4.285156 -4.738281 4.3125 -4.511719 C 4.3125 -4.285156 4.335938 -4.058594 4.335938 -3.835938 C 4.335938 -3.609375 4.359375 -3.382812 4.359375 -3.15625 C 4.359375 -2.933594 4.3125 -2.707031 4.3125 -2.480469 C 4.3125 -2.253906 4.3125 -2.03125 4.335938 -1.804688 C 4.335938 -1.578125 4.359375 -1.351562 4.359375 -1.128906 C 4.359375 -0.777344 4.386719 -0.550781 4.460938 -0.375 C 4.5625 -0.0742188 4.738281 0.0507812 5.011719 0.0742188 C 5.238281 0.0742188 5.488281 0.0507812 5.789062 0.0507812 C 6.113281 0.0234375 6.339844 -0.0234375 6.515625 -0.0742188 C 6.84375 -0.125 6.941406 -0.25 7.015625 -0.476562 C 7.09375 -0.652344 7.117188 -0.878906 7.117188 -1.179688 C 7.117188 -1.402344 7.09375 -1.652344 7.09375 -1.90625 C 7.09375 -2.128906 7.117188 -2.382812 7.09375 -2.632812 C 7.09375 -2.855469 7.066406 -3.109375 7.066406 -3.359375 C 7.066406 -3.582031 7.09375 -3.835938 7.09375 -4.058594 C 7.09375 -4.3125 7.042969 -4.5625 7.042969 -4.785156 C 7.042969 -5.039062 7.144531 -5.261719 7.144531 -5.511719 C 7.144531 -5.738281 7.144531 -5.988281 7.117188 -6.214844 C 7.117188 -6.464844 7.09375 -6.714844 7.09375 -6.941406 C 7.09375 -7.167969 7.117188 -7.394531 7.117188 -7.617188 C 7.117188 -7.84375 7.042969 -8.070312 7.042969 -8.296875 C 7.042969 -8.519531 7.015625 -8.746094 7.015625 -8.972656 C 7.015625 -9.199219 6.992188 -9.421875 6.992188 -9.648438 C 6.992188 -9.875 6.992188 -10.101562 6.992188 -10.324219 C 6.992188 -10.550781 6.96875 -10.777344 6.96875 -11.003906 C 6.96875 -11.226562 7.015625 -11.453125 7.015625 -11.703125 C 7.015625 -11.90625 6.992188 -12.128906 6.992188 -12.378906 C 6.96875 -12.605469 7.015625 -12.78125 6.992188 -13.03125 C 7.242188 -13.03125 7.445312 -13.058594 7.667969 -13.058594 Z M 7.667969 -13.058594 "/></g></g></g><g fill="#502273" fill-opacity="1"><g transform="translate(149.479331, 358.153175)"><g><path d="M 4.710938 -8.597656 C 4.710938 -8.820312 4.710938 -9.046875 4.710938 -9.273438 C 4.710938 -9.5 4.710938 -9.75 4.710938 -9.976562 C 4.710938 -10.199219 4.761719 -10.425781 4.761719 -10.652344 C 4.761719 -10.875 4.8125 -11.128906 4.8125 -11.351562 C 4.8125 -11.578125 4.761719 -11.804688 4.761719 -12.03125 C 4.761719 -12.253906 4.738281 -12.480469 4.738281 -12.707031 C 4.738281 -12.957031 4.761719 -13.183594 4.761719 -13.40625 C 4.761719 -13.632812 4.738281 -13.859375 4.738281 -14.085938 C 4.738281 -14.335938 4.8125 -14.5625 4.785156 -14.761719 C 4.761719 -15.039062 4.6875 -15.261719 4.613281 -15.4375 C 4.511719 -15.664062 4.3125 -15.714844 4.058594 -15.765625 C 3.882812 -15.789062 3.660156 -15.839844 3.382812 -15.839844 C 3.132812 -15.839844 2.90625 -15.8125 2.730469 -15.789062 C 2.507812 -15.738281 2.304688 -15.714844 2.179688 -15.464844 C 2.105469 -15.3125 2.054688 -15.113281 2.03125 -14.8125 C 2.003906 -14.609375 2.003906 -14.386719 2.003906 -14.136719 C 2.003906 -13.910156 2.054688 -13.707031 2.054688 -13.484375 C 2.054688 -13.257812 2.054688 -13.03125 2.054688 -12.808594 C 2.03125 -12.582031 2.03125 -12.355469 2.03125 -12.128906 C 2.03125 -11.90625 1.980469 -11.679688 1.980469 -11.453125 C 1.980469 -11.253906 2.003906 -11.027344 2.003906 -10.800781 C 2.003906 -10.574219 2.03125 -10.351562 2.03125 -10.125 C 2.03125 -9.898438 1.953125 -9.675781 1.953125 -9.449219 C 1.953125 -9.222656 2.03125 -8.996094 2.03125 -8.773438 C 2.03125 -8.546875 2.003906 -8.320312 2.003906 -8.09375 C 2.003906 -7.871094 1.953125 -7.667969 1.953125 -7.445312 C 1.953125 -7.21875 2.003906 -6.992188 2.003906 -6.765625 C 2.003906 -6.542969 1.929688 -6.316406 1.929688 -6.089844 C 1.929688 -5.863281 1.929688 -5.664062 1.929688 -5.4375 C 1.929688 -5.210938 1.980469 -4.988281 1.980469 -4.761719 C 1.980469 -4.535156 1.929688 -4.3125 1.929688 -4.085938 C 1.929688 -3.882812 1.980469 -3.660156 1.980469 -3.433594 C 1.980469 -3.207031 1.953125 -2.980469 1.953125 -2.757812 C 1.953125 -2.554688 1.90625 -2.332031 1.90625 -2.105469 C 1.90625 -1.90625 1.90625 -1.679688 1.878906 -1.402344 C 1.855469 -1.203125 1.855469 -0.976562 1.855469 -0.703125 C 1.828125 -0.375 1.980469 -0.148438 2.207031 -0.0507812 C 2.457031 0.101562 2.808594 0.0507812 2.957031 0.0507812 C 3.183594 0.0507812 3.433594 0.0234375 3.660156 0.0234375 C 3.910156 0 4.160156 -0.0234375 4.359375 -0.0742188 C 4.613281 -0.175781 4.761719 -0.300781 4.738281 -0.550781 C 4.710938 -0.75 4.738281 -0.953125 4.738281 -1.152344 C 4.738281 -1.351562 4.710938 -1.554688 4.710938 -1.730469 C 4.710938 -1.929688 4.785156 -2.128906 4.785156 -2.332031 C 4.785156 -2.554688 4.761719 -2.78125 4.761719 -3.007812 C 4.761719 -3.257812 4.785156 -3.484375 4.785156 -3.710938 C 4.785156 -3.960938 4.761719 -4.183594 4.761719 -4.410156 C 4.761719 -4.636719 4.761719 -4.886719 4.761719 -5.113281 C 4.761719 -5.339844 4.761719 -5.589844 4.761719 -5.8125 C 4.761719 -6.039062 4.761719 -6.289062 4.761719 -6.515625 C 4.761719 -6.742188 4.761719 -6.96875 4.761719 -7.21875 C 4.761719 -7.445312 4.8125 -7.667969 4.8125 -7.917969 C 4.8125 -8.121094 4.710938 -8.371094 4.710938 -8.597656 Z M 4.710938 -8.597656 "/></g></g></g><g fill="#502273" fill-opacity="1"><g transform="translate(162.687396, 358.153175)"><g/></g></g><g fill="#502273" fill-opacity="1"><g transform="translate(176.171088, 358.153175)"><g><path d="M 5.339844 -6.390625 C 5.589844 -6.390625 5.8125 -6.441406 6.066406 -6.464844 C 6.316406 -6.464844 6.542969 -6.464844 6.792969 -6.492188 C 7.042969 -6.492188 7.269531 -6.566406 7.519531 -6.566406 C 7.769531 -6.589844 7.996094 -6.617188 8.246094 -6.617188 C 8.496094 -6.640625 8.722656 -6.640625 8.972656 -6.640625 C 9.199219 -6.667969 9.421875 -6.667969 9.648438 -6.714844 C 9.875 -6.792969 10.074219 -6.917969 10.277344 -7.015625 C 10.5 -7.117188 10.675781 -7.21875 10.875 -7.34375 C 11.050781 -7.46875 11.253906 -7.59375 11.429688 -7.746094 C 11.578125 -7.894531 11.730469 -8.070312 11.878906 -8.246094 C 12.003906 -8.445312 12.105469 -8.644531 12.230469 -8.847656 C 12.332031 -9.046875 12.457031 -9.222656 12.53125 -9.449219 C 12.605469 -9.675781 12.65625 -9.875 12.707031 -10.101562 C 12.730469 -10.324219 12.832031 -10.550781 12.855469 -10.777344 C 12.855469 -11.003906 12.808594 -11.226562 12.808594 -11.429688 C 12.808594 -11.679688 12.808594 -11.878906 12.78125 -12.105469 C 12.757812 -12.332031 12.707031 -12.53125 12.65625 -12.730469 C 12.605469 -12.957031 12.554688 -13.183594 12.457031 -13.359375 C 12.378906 -13.582031 12.253906 -13.757812 12.128906 -13.933594 C 12.03125 -14.136719 11.90625 -14.308594 11.753906 -14.460938 C 11.605469 -14.636719 11.429688 -14.785156 11.253906 -14.910156 C 11.078125 -15.039062 10.875 -15.113281 10.675781 -15.210938 C 10.476562 -15.3125 10.277344 -15.414062 10.074219 -15.464844 C 9.875 -15.539062 9.648438 -15.5625 9.421875 -15.589844 C 9.199219 -15.636719 8.972656 -15.664062 8.746094 -15.6875 C 8.519531 -15.714844 8.296875 -15.738281 8.042969 -15.765625 C 7.820312 -15.789062 7.59375 -15.8125 7.367188 -15.839844 C 7.144531 -15.839844 6.917969 -15.863281 6.691406 -15.863281 C 6.464844 -15.890625 6.242188 -15.890625 5.988281 -15.890625 C 5.765625 -15.890625 5.539062 -15.863281 5.3125 -15.863281 C 5.085938 -15.863281 4.863281 -15.890625 4.636719 -15.890625 C 4.386719 -15.863281 4.160156 -15.914062 3.933594 -15.890625 C 3.683594 -15.890625 3.484375 -15.839844 3.28125 -15.839844 C 3.03125 -15.8125 2.832031 -15.839844 2.65625 -15.839844 C 2.355469 -15.839844 2.15625 -15.789062 2.054688 -15.636719 C 1.980469 -15.511719 1.953125 -15.3125 1.929688 -15.011719 C 1.929688 -14.835938 1.929688 -14.609375 1.929688 -14.359375 C 1.929688 -14.136719 1.90625 -13.910156 1.90625 -13.660156 C 1.90625 -13.433594 1.878906 -13.207031 1.90625 -12.980469 C 1.90625 -12.757812 1.90625 -12.507812 1.90625 -12.28125 C 1.929688 -12.054688 1.90625 -11.828125 1.90625 -11.578125 C 1.90625 -11.351562 1.929688 -11.128906 1.929688 -10.902344 C 1.929688 -10.652344 1.929688 -10.425781 1.929688 -10.199219 C 1.929688 -9.976562 1.953125 -9.722656 1.953125 -9.5 C 1.953125 -9.273438 1.929688 -9.046875 1.929688 -8.796875 C 1.929688 -8.570312 1.980469 -8.34375 1.980469 -8.121094 C 1.980469 -7.894531 1.953125 -7.644531 1.953125 -7.417969 C 1.953125 -7.191406 2.003906 -6.96875 2.03125 -6.742188 C 2.03125 -6.492188 2.003906 -6.265625 2.003906 -6.039062 C 2.03125 -5.8125 2.003906 -5.589844 2.003906 -5.363281 C 2.003906 -5.113281 1.980469 -4.886719 1.980469 -4.660156 C 1.980469 -4.4375 2.003906 -4.210938 2.003906 -3.984375 C 2.003906 -3.734375 2.003906 -3.507812 2.003906 -3.28125 C 2.003906 -3.058594 2.003906 -2.832031 2.003906 -2.605469 C 2.003906 -2.382812 2.03125 -2.128906 2.03125 -1.90625 C 2.03125 -1.652344 2.003906 -1.628906 2.003906 -1.351562 C 2.03125 -1.226562 2.082031 -1.050781 2.105469 -0.800781 C 2.105469 -0.550781 2.128906 -0.351562 2.253906 -0.25 C 2.40625 -0.125 2.632812 -0.101562 2.832031 -0.0507812 C 3.058594 -0.0234375 3.257812 0.0507812 3.410156 0.0507812 C 3.582031 0.0742188 3.910156 0.0234375 4.183594 -0.0234375 C 4.511719 -0.0742188 4.785156 -0.226562 4.761719 -0.449219 C 4.738281 -0.675781 4.710938 -0.902344 4.710938 -1.128906 C 4.710938 -1.351562 4.710938 -1.578125 4.710938 -1.804688 C 4.710938 -2.03125 4.738281 -2.253906 4.738281 -2.480469 C 4.738281 -2.679688 4.738281 -2.90625 4.738281 -3.132812 C 4.738281 -3.332031 4.660156 -3.558594 4.660156 -3.785156 C 4.660156 -3.984375 4.710938 -4.210938 4.6875 -4.4375 C 4.6875 -4.636719 4.660156 -4.863281 4.636719 -5.085938 C 4.636719 -5.289062 4.660156 -5.511719 4.636719 -5.738281 C 4.636719 -5.941406 4.636719 -6.140625 4.613281 -6.367188 C 4.863281 -6.367188 5.085938 -6.367188 5.339844 -6.390625 Z M 4.636719 -9.800781 C 4.613281 -10.023438 4.5625 -10.25 4.5625 -10.5 C 4.5625 -10.726562 4.5625 -10.953125 4.5625 -11.203125 C 4.5625 -11.429688 4.5625 -11.679688 4.5625 -11.90625 C 4.5625 -12.128906 4.585938 -12.378906 4.585938 -12.605469 C 4.585938 -12.855469 4.5625 -13.082031 4.535156 -13.308594 C 4.785156 -13.308594 5.039062 -13.28125 5.289062 -13.28125 C 5.539062 -13.28125 5.765625 -13.28125 6.015625 -13.28125 C 6.265625 -13.28125 6.515625 -13.308594 6.742188 -13.308594 C 6.992188 -13.308594 7.242188 -13.308594 7.492188 -13.308594 C 7.71875 -13.28125 7.996094 -13.308594 8.21875 -13.28125 C 8.496094 -13.234375 8.722656 -13.082031 8.945312 -13.007812 C 9.199219 -12.90625 9.449219 -12.832031 9.625 -12.679688 C 9.824219 -12.53125 9.925781 -12.28125 10.023438 -12.054688 C 10.101562 -11.828125 10.148438 -11.605469 10.148438 -11.328125 C 10.148438 -11.101562 10.125 -10.902344 10.074219 -10.703125 C 10 -10.5 9.925781 -10.300781 9.824219 -10.125 C 9.699219 -9.949219 9.546875 -9.800781 9.375 -9.675781 C 9.199219 -9.574219 9.023438 -9.472656 8.796875 -9.398438 C 8.621094 -9.347656 8.421875 -9.324219 8.195312 -9.324219 C 7.945312 -9.296875 7.71875 -9.222656 7.492188 -9.199219 C 7.242188 -9.171875 7.015625 -9.222656 6.765625 -9.199219 C 6.542969 -9.171875 6.289062 -9.148438 6.066406 -9.121094 C 5.8125 -9.097656 5.589844 -9.121094 5.339844 -9.121094 C 5.113281 -9.121094 4.886719 -9.097656 4.636719 -9.097656 C 4.636719 -9.347656 4.636719 -9.546875 4.636719 -9.800781 Z M 4.636719 -9.800781 "/></g></g></g><g fill="#502273" fill-opacity="1"><g transform="translate(196.445281, 358.153175)"><g><path d="M 1.980469 -12.230469 C 1.980469 -12.003906 2.003906 -11.777344 1.980469 -11.527344 C 1.980469 -11.304688 2.03125 -11.078125 2.03125 -10.828125 C 2.03125 -10.625 1.980469 -10.375 1.980469 -10.148438 C 1.980469 -9.925781 2.03125 -9.699219 2.03125 -9.449219 C 2.03125 -9.222656 2.003906 -8.996094 2.003906 -8.773438 C 2.003906 -8.519531 1.929688 -8.296875 1.929688 -8.070312 C 1.929688 -7.84375 1.953125 -7.59375 1.953125 -7.367188 C 1.953125 -7.144531 1.953125 -6.917969 1.953125 -6.691406 C 1.953125 -6.464844 1.929688 -6.214844 1.929688 -5.988281 C 1.90625 -5.765625 1.980469 -5.539062 1.980469 -5.3125 C 1.980469 -5.0625 2.003906 -4.835938 2.003906 -4.636719 C 2.003906 -4.386719 1.980469 -4.160156 1.980469 -3.933594 C 1.980469 -3.683594 1.980469 -3.457031 1.980469 -3.257812 C 2.003906 -2.980469 1.953125 -2.757812 1.953125 -2.554688 C 1.980469 -2.355469 2.003906 -2.105469 2.003906 -1.855469 C 2.003906 -1.605469 1.953125 -1.351562 1.953125 -1.128906 C 1.953125 -0.851562 1.953125 -0.601562 1.953125 -0.402344 C 1.929688 -0.175781 2.128906 0.0234375 2.382812 0.0234375 C 2.582031 0.0234375 2.832031 0 3.082031 0 C 3.332031 0 3.558594 0 3.808594 0 C 4.058594 0 4.3125 -0.0234375 4.535156 -0.0234375 C 4.761719 0 4.988281 0 5.210938 0.0234375 C 5.4375 0.0234375 5.6875 0 5.914062 0 C 6.140625 0 6.367188 0.0507812 6.589844 0.0507812 C 6.84375 0.0507812 7.066406 0 7.292969 0 C 7.519531 0 7.746094 0 7.996094 0 C 8.21875 -0.0234375 8.445312 0.0234375 8.671875 0 C 8.898438 0 9.148438 -0.0507812 9.375 -0.0742188 C 9.625 -0.0742188 9.875 -0.0234375 10.101562 -0.0234375 C 10.351562 -0.0507812 10.601562 -0.0234375 10.828125 -0.0742188 C 11.050781 -0.101562 11.277344 -0.199219 11.527344 -0.300781 C 11.679688 -0.351562 11.804688 -0.527344 11.828125 -0.75 C 11.878906 -0.925781 11.855469 -1.152344 11.855469 -1.328125 C 11.855469 -1.480469 11.828125 -1.753906 11.828125 -1.980469 C 11.828125 -2.253906 11.777344 -2.507812 11.605469 -2.582031 C 11.402344 -2.679688 11.152344 -2.757812 10.875 -2.78125 C 10.625 -2.808594 10.375 -2.832031 10.125 -2.832031 C 9.898438 -2.832031 9.699219 -2.757812 9.5 -2.757812 C 9.296875 -2.757812 9.097656 -2.808594 8.871094 -2.808594 C 8.671875 -2.78125 8.472656 -2.730469 8.269531 -2.730469 C 8.070312 -2.730469 7.871094 -2.707031 7.644531 -2.707031 C 7.445312 -2.707031 7.242188 -2.757812 7.042969 -2.757812 C 6.84375 -2.757812 6.617188 -2.757812 6.414062 -2.757812 C 6.214844 -2.757812 5.988281 -2.78125 5.789062 -2.78125 C 5.5625 -2.78125 5.363281 -2.730469 5.1875 -2.757812 C 4.8125 -2.757812 4.785156 -2.53125 4.613281 -2.78125 C 4.386719 -3.109375 4.5625 -3.082031 4.5625 -3.535156 C 4.585938 -3.757812 4.636719 -4.035156 4.660156 -4.3125 C 4.660156 -4.5625 4.660156 -4.835938 4.660156 -5.085938 C 4.660156 -5.3125 4.6875 -5.539062 4.710938 -5.789062 C 4.710938 -6.015625 4.660156 -6.242188 4.660156 -6.464844 C 4.660156 -6.714844 4.6875 -6.941406 4.710938 -7.167969 C 4.710938 -7.394531 4.6875 -7.644531 4.6875 -7.871094 C 4.6875 -8.09375 4.761719 -8.320312 4.785156 -8.570312 C 4.785156 -8.796875 4.6875 -9.023438 4.710938 -9.246094 C 4.710938 -9.5 4.761719 -9.722656 4.761719 -9.949219 C 4.761719 -10.175781 4.785156 -10.425781 4.785156 -10.652344 C 4.785156 -10.875 4.761719 -11.101562 4.761719 -11.351562 C 4.761719 -11.578125 4.785156 -11.804688 4.785156 -12.03125 C 4.785156 -12.28125 4.8125 -12.507812 4.8125 -12.730469 C 4.8125 -12.957031 4.785156 -13.207031 4.785156 -13.433594 C 4.785156 -13.632812 4.835938 -13.835938 4.835938 -14.035156 C 4.835938 -14.234375 4.835938 -14.4375 4.835938 -14.636719 C 4.863281 -14.835938 4.785156 -15.039062 4.785156 -15.238281 C 4.761719 -15.464844 4.636719 -15.5625 4.4375 -15.636719 C 4.261719 -15.714844 4.058594 -15.8125 3.859375 -15.8125 C 3.632812 -15.839844 3.410156 -15.789062 3.28125 -15.765625 C 3.082031 -15.738281 2.757812 -15.789062 2.480469 -15.6875 C 2.253906 -15.636719 2.082031 -15.511719 2.054688 -15.164062 C 2.03125 -14.9375 2.003906 -14.6875 2.03125 -14.410156 C 2.03125 -14.160156 2.03125 -13.910156 2.03125 -13.660156 C 2.03125 -13.40625 2.003906 -13.132812 2.003906 -12.90625 C 2.003906 -12.730469 2.003906 -12.507812 1.980469 -12.230469 Z M 1.980469 -12.230469 "/></g></g></g><g fill="#502273" fill-opacity="1"><g transform="translate(215.341313, 358.153175)"><g><path d="M 5.039062 -2.832031 C 5.261719 -2.808594 5.488281 -2.757812 5.714844 -2.757812 C 5.964844 -2.757812 6.191406 -2.757812 6.414062 -2.757812 C 6.640625 -2.757812 6.867188 -2.78125 7.09375 -2.78125 C 7.316406 -2.78125 7.542969 -2.78125 7.769531 -2.78125 C 7.996094 -2.808594 8.246094 -2.855469 8.496094 -2.855469 C 8.773438 -2.832031 9.023438 -2.808594 9.246094 -2.808594 C 9.675781 -2.78125 9.675781 -2.933594 10 -2.78125 C 10.277344 -2.65625 10.101562 -2.53125 10.300781 -2.230469 C 10.402344 -2.082031 10.550781 -1.929688 10.652344 -1.730469 C 10.75 -1.554688 10.828125 -1.378906 10.902344 -1.179688 C 11.003906 -1.003906 11.101562 -0.800781 11.128906 -0.625 C 11.203125 -0.351562 11.328125 -0.226562 11.453125 -0.125 C 11.605469 -0.0234375 11.777344 -0.0234375 12.03125 -0.0234375 C 12.207031 -0.0234375 12.429688 0 12.65625 0 C 12.90625 0 13.105469 -0.0507812 13.28125 -0.0742188 C 13.558594 -0.125 13.734375 -0.199219 13.808594 -0.351562 C 13.882812 -0.5 13.859375 -0.703125 13.757812 -0.976562 C 13.683594 -1.152344 13.609375 -1.378906 13.507812 -1.605469 C 13.433594 -1.804688 13.40625 -2.054688 13.308594 -2.253906 C 13.234375 -2.480469 13.082031 -2.65625 13.007812 -2.882812 C 12.90625 -3.109375 12.832031 -3.308594 12.730469 -3.535156 C 12.65625 -3.734375 12.632812 -3.984375 12.554688 -4.183594 C 12.457031 -4.410156 12.332031 -4.613281 12.253906 -4.8125 C 12.179688 -5.039062 12.054688 -5.238281 11.980469 -5.4375 C 11.90625 -5.640625 11.855469 -5.863281 11.777344 -6.066406 C 11.703125 -6.265625 11.578125 -6.464844 11.503906 -6.667969 C 11.429688 -6.890625 11.328125 -7.09375 11.253906 -7.292969 C 11.175781 -7.492188 11.128906 -7.71875 11.050781 -7.917969 C 10.976562 -8.144531 10.902344 -8.34375 10.828125 -8.546875 C 10.726562 -8.746094 10.652344 -8.945312 10.550781 -9.171875 C 10.476562 -9.375 10.449219 -9.597656 10.375 -9.800781 C 10.300781 -10.023438 10.148438 -10.199219 10.074219 -10.402344 C 10 -10.601562 9.949219 -10.828125 9.875 -11.027344 C 9.773438 -11.253906 9.75 -11.453125 9.675781 -11.679688 C 9.597656 -11.878906 9.472656 -12.078125 9.375 -12.28125 C 9.296875 -12.480469 9.246094 -12.707031 9.171875 -12.90625 C 9.074219 -13.105469 8.996094 -13.308594 8.921875 -13.535156 C 8.847656 -13.734375 8.722656 -13.933594 8.644531 -14.136719 C 8.570312 -14.335938 8.472656 -14.535156 8.394531 -14.738281 C 8.269531 -15.0625 8.246094 -15.3125 8.144531 -15.464844 C 7.945312 -15.765625 7.746094 -15.8125 7.492188 -15.839844 C 7.292969 -15.863281 7.066406 -15.863281 6.742188 -15.839844 C 6.515625 -15.839844 6.390625 -15.8125 6.191406 -15.664062 C 6.089844 -15.5625 5.914062 -15.464844 5.765625 -15.238281 C 5.6875 -15.085938 5.664062 -14.886719 5.5625 -14.660156 C 5.488281 -14.484375 5.386719 -14.308594 5.3125 -14.109375 C 5.238281 -13.910156 5.1875 -13.683594 5.113281 -13.457031 C 5.039062 -13.257812 4.960938 -13.058594 4.886719 -12.832031 C 4.8125 -12.632812 4.738281 -12.40625 4.660156 -12.207031 C 4.585938 -11.980469 4.484375 -11.777344 4.410156 -11.554688 C 4.335938 -11.351562 4.335938 -11.101562 4.261719 -10.902344 C 4.183594 -10.675781 4.058594 -10.5 3.984375 -10.277344 C 3.910156 -10.074219 3.882812 -9.847656 3.808594 -9.625 C 3.734375 -9.398438 3.609375 -9.222656 3.535156 -8.996094 C 3.484375 -8.796875 3.410156 -8.570312 3.332031 -8.34375 C 3.257812 -8.144531 3.207031 -7.917969 3.132812 -7.71875 C 3.058594 -7.492188 2.980469 -7.292969 2.90625 -7.066406 C 2.832031 -6.867188 2.78125 -6.640625 2.707031 -6.414062 C 2.632812 -6.214844 2.480469 -6.015625 2.40625 -5.8125 C 2.332031 -5.613281 2.355469 -5.363281 2.28125 -5.136719 C 2.207031 -4.9375 2.128906 -4.738281 2.054688 -4.511719 C 1.980469 -4.3125 1.828125 -4.109375 1.753906 -3.910156 C 1.679688 -3.683594 1.679688 -3.457031 1.605469 -3.257812 C 1.527344 -3.03125 1.429688 -2.832031 1.351562 -2.632812 C 1.304688 -2.507812 1.203125 -2.230469 1.078125 -1.929688 C 1.003906 -1.703125 0.925781 -1.453125 0.828125 -1.226562 C 0.726562 -0.902344 0.675781 -0.625 0.675781 -0.5 C 0.625 -0.0742188 0.777344 0.0234375 1.101562 0.0234375 C 1.328125 0.0507812 1.605469 0 1.929688 0.0234375 C 2.15625 0.0507812 2.457031 0.0507812 2.730469 0 C 3.007812 -0.0507812 3.207031 -0.148438 3.359375 -0.402344 C 3.457031 -0.601562 3.582031 -0.777344 3.660156 -0.976562 C 3.734375 -1.179688 3.808594 -1.378906 3.882812 -1.578125 C 3.960938 -1.78125 4.011719 -1.980469 4.109375 -2.179688 C 4.183594 -2.382812 4.234375 -2.605469 4.335938 -2.808594 C 4.5625 -2.808594 4.8125 -2.832031 5.039062 -2.832031 Z M 5.363281 -6.164062 C 5.4375 -6.390625 5.511719 -6.589844 5.589844 -6.792969 C 5.664062 -7.015625 5.738281 -7.21875 5.8125 -7.445312 C 5.890625 -7.644531 5.964844 -7.84375 6.066406 -8.042969 C 6.140625 -8.269531 6.191406 -8.472656 6.289062 -8.671875 C 6.367188 -8.898438 6.515625 -9.074219 6.589844 -9.273438 C 6.667969 -9.472656 6.667969 -9.722656 6.742188 -9.949219 C 6.816406 -10.148438 6.941406 -10.375 7.015625 -10.601562 C 7.144531 -10.375 7.21875 -10.125 7.316406 -9.949219 C 7.445312 -9.722656 7.59375 -9.546875 7.695312 -9.347656 C 7.820312 -9.148438 7.894531 -8.921875 7.96875 -8.722656 C 8.070312 -8.519531 8.144531 -8.296875 8.21875 -8.09375 C 8.320312 -7.871094 8.421875 -7.667969 8.496094 -7.445312 C 8.597656 -7.242188 8.722656 -7.042969 8.796875 -6.84375 C 8.898438 -6.617188 8.921875 -6.390625 8.996094 -6.164062 C 9.097656 -5.964844 9.199219 -5.765625 9.296875 -5.539062 C 9.046875 -5.539062 8.847656 -5.511719 8.621094 -5.511719 C 8.371094 -5.511719 8.144531 -5.511719 7.917969 -5.511719 C 7.667969 -5.511719 7.445312 -5.5625 7.21875 -5.5625 C 6.992188 -5.5625 6.765625 -5.539062 6.515625 -5.539062 C 6.289062 -5.539062 6.066406 -5.539062 5.8125 -5.539062 C 5.589844 -5.539062 5.339844 -5.511719 5.085938 -5.511719 C 5.164062 -5.738281 5.289062 -5.964844 5.363281 -6.164062 Z M 5.363281 -6.164062 "/></g></g></g><g fill="#502273" fill-opacity="1"><g transform="translate(236.317101, 358.153175)"><g><path d="M 6.113281 -11.429688 C 6.015625 -11.628906 5.941406 -11.855469 5.839844 -12.03125 C 5.6875 -12.28125 5.511719 -12.429688 5.414062 -12.554688 C 5.261719 -12.707031 5.113281 -12.882812 4.988281 -13.058594 C 4.835938 -13.234375 4.761719 -13.433594 4.660156 -13.632812 C 4.535156 -13.808594 4.410156 -13.984375 4.335938 -14.183594 C 4.234375 -14.4375 4.136719 -14.636719 4.058594 -14.8125 C 3.933594 -15.039062 3.859375 -15.238281 3.757812 -15.363281 C 3.582031 -15.589844 3.433594 -15.714844 3.234375 -15.765625 C 3.058594 -15.839844 2.832031 -15.8125 2.582031 -15.8125 C 2.382812 -15.8125 2.179688 -15.890625 1.929688 -15.890625 C 1.679688 -15.890625 1.480469 -15.839844 1.277344 -15.839844 C 1.003906 -15.839844 0.75 -15.8125 0.625 -15.738281 C 0.476562 -15.613281 0.425781 -15.414062 0.5 -15.085938 C 0.550781 -14.960938 0.726562 -14.738281 0.902344 -14.460938 C 1.003906 -14.261719 1.152344 -14.035156 1.304688 -13.835938 C 1.429688 -13.609375 1.578125 -13.382812 1.703125 -13.207031 C 1.878906 -12.933594 2.082031 -12.730469 2.15625 -12.605469 C 2.28125 -12.457031 2.355469 -12.253906 2.480469 -12.054688 C 2.605469 -11.90625 2.730469 -11.730469 2.855469 -11.527344 C 2.957031 -11.351562 3.058594 -11.152344 3.183594 -10.976562 C 3.28125 -10.800781 3.410156 -10.625 3.535156 -10.449219 C 3.660156 -10.25 3.757812 -10.074219 3.882812 -9.898438 C 4.011719 -9.722656 4.136719 -9.546875 4.261719 -9.375 C 4.386719 -9.199219 4.460938 -8.996094 4.585938 -8.820312 C 4.6875 -8.695312 4.863281 -8.546875 4.960938 -8.34375 C 5.039062 -8.195312 5.113281 -7.996094 5.1875 -7.820312 C 5.289062 -7.59375 5.363281 -7.367188 5.363281 -7.242188 C 5.363281 -6.917969 5.3125 -6.714844 5.3125 -6.542969 C 5.3125 -6.289062 5.363281 -6.113281 5.339844 -5.863281 C 5.339844 -5.664062 5.339844 -5.464844 5.339844 -5.136719 C 5.3125 -4.914062 5.261719 -4.6875 5.261719 -4.4375 C 5.238281 -4.183594 5.261719 -3.933594 5.238281 -3.710938 C 5.238281 -3.457031 5.210938 -3.207031 5.1875 -2.957031 C 5.1875 -2.730469 5.136719 -2.480469 5.113281 -2.230469 C 5.113281 -2.003906 5.136719 -1.753906 5.136719 -1.503906 C 5.136719 -1.253906 5.164062 -1.027344 5.1875 -0.800781 C 5.1875 -0.527344 5.238281 -0.351562 5.363281 -0.226562 C 5.488281 -0.101562 5.6875 -0.0234375 5.914062 0 C 6.089844 0.0234375 6.316406 0.0234375 6.542969 0.0234375 C 6.765625 0.0234375 7.015625 -0.0234375 7.269531 -0.0742188 C 7.519531 -0.101562 7.769531 -0.125 7.945312 -0.25 C 8.171875 -0.375 8.320312 -0.578125 8.320312 -0.851562 C 8.296875 -1.078125 8.269531 -1.277344 8.246094 -1.480469 C 8.246094 -1.652344 8.246094 -1.855469 8.246094 -2.105469 C 8.246094 -2.28125 8.195312 -2.480469 8.195312 -2.730469 C 8.195312 -2.933594 8.246094 -3.132812 8.246094 -3.359375 C 8.269531 -3.558594 8.246094 -3.757812 8.246094 -4.011719 C 8.269531 -4.234375 8.296875 -4.484375 8.296875 -4.761719 C 8.269531 -5.011719 8.246094 -5.261719 8.21875 -5.511719 C 8.195312 -5.789062 8.171875 -6.039062 8.144531 -6.265625 C 8.121094 -6.566406 8.121094 -6.84375 8.121094 -7.015625 C 8.121094 -7.242188 8.171875 -7.46875 8.269531 -7.71875 C 8.371094 -7.945312 8.445312 -8.171875 8.570312 -8.421875 C 8.695312 -8.621094 8.820312 -8.820312 8.972656 -9.046875 C 9.121094 -9.246094 9.273438 -9.421875 9.449219 -9.625 C 9.574219 -9.824219 9.773438 -10 9.925781 -10.199219 C 10.023438 -10.300781 10.148438 -10.527344 10.351562 -10.777344 C 10.476562 -10.953125 10.601562 -11.152344 10.75 -11.351562 C 10.902344 -11.527344 10.976562 -11.753906 11.128906 -11.953125 C 11.253906 -12.15625 11.429688 -12.332031 11.578125 -12.53125 C 11.703125 -12.730469 11.855469 -12.90625 11.980469 -13.105469 C 12.128906 -13.308594 12.253906 -13.507812 12.378906 -13.683594 C 12.53125 -13.910156 12.605469 -14.136719 12.707031 -14.308594 C 12.90625 -14.585938 13.03125 -14.785156 13.105469 -14.910156 C 13.332031 -15.238281 13.433594 -15.4375 13.359375 -15.5625 C 13.28125 -15.714844 13.058594 -15.8125 12.679688 -15.839844 C 12.480469 -15.863281 12.230469 -15.8125 11.929688 -15.8125 C 11.652344 -15.8125 11.429688 -15.914062 11.253906 -15.914062 C 10.953125 -15.914062 10.777344 -15.839844 10.601562 -15.6875 C 10.476562 -15.589844 10.351562 -15.414062 10.148438 -15.164062 C 10.050781 -15.011719 9.847656 -14.863281 9.699219 -14.636719 C 9.574219 -14.484375 9.472656 -14.285156 9.347656 -14.085938 C 9.246094 -13.910156 9.171875 -13.707031 9.046875 -13.535156 C 8.945312 -13.359375 8.847656 -13.15625 8.746094 -12.957031 C 8.644531 -12.78125 8.496094 -12.632812 8.394531 -12.429688 C 8.296875 -12.253906 8.171875 -12.078125 8.070312 -11.878906 C 7.945312 -11.703125 7.894531 -11.476562 7.769531 -11.304688 C 7.644531 -11.128906 7.519531 -10.976562 7.394531 -10.800781 C 7.269531 -10.625 7.09375 -10.574219 6.917969 -10.601562 C 6.714844 -10.601562 6.542969 -10.652344 6.441406 -10.828125 C 6.316406 -11.027344 6.214844 -11.226562 6.113281 -11.429688 Z M 6.113281 -11.429688 "/></g></g></g><g fill="#502273" fill-opacity="1"><g transform="translate(256.616343, 358.153175)"><g/></g></g><g fill="#502273" fill-opacity="1"><g transform="translate(270.100023, 358.153175)"><g><path d="M 4.359375 -11.953125 C 4.4375 -12.179688 4.535156 -12.378906 4.660156 -12.554688 C 4.785156 -12.730469 4.960938 -12.855469 5.136719 -12.980469 C 5.3125 -13.105469 5.464844 -13.28125 5.6875 -13.359375 C 5.890625 -13.433594 6.113281 -13.457031 6.339844 -13.484375 C 6.589844 -13.535156 6.84375 -13.558594 7.066406 -13.507812 C 7.316406 -13.457031 7.542969 -13.382812 7.769531 -13.28125 C 7.996094 -13.183594 8.21875 -13.082031 8.445312 -12.957031 C 8.644531 -12.832031 8.871094 -12.679688 9.074219 -12.554688 C 9.296875 -12.429688 9.5 -12.28125 9.699219 -12.179688 C 9.949219 -12.03125 10.125 -11.980469 10.277344 -11.953125 C 10.5 -11.929688 10.675781 -11.980469 10.875 -12.15625 C 11.003906 -12.28125 11.101562 -12.480469 11.277344 -12.679688 C 11.402344 -12.832031 11.554688 -13.082031 11.679688 -13.359375 C 11.777344 -13.660156 11.878906 -13.984375 11.703125 -14.136719 C 11.351562 -14.410156 11.203125 -14.511719 11.027344 -14.636719 C 10.875 -14.738281 10.703125 -14.863281 10.324219 -15.085938 C 10.101562 -15.238281 9.847656 -15.3125 9.648438 -15.414062 C 9.421875 -15.511719 9.199219 -15.613281 8.972656 -15.6875 C 8.746094 -15.765625 8.519531 -15.863281 8.269531 -15.914062 C 8.042969 -15.964844 7.792969 -16.039062 7.542969 -16.066406 C 7.316406 -16.089844 7.066406 -16.039062 6.816406 -16.039062 C 6.566406 -16.039062 6.339844 -16.015625 6.140625 -15.988281 C 5.890625 -15.964844 5.664062 -15.964844 5.4375 -15.914062 C 5.210938 -15.863281 5.011719 -15.789062 4.785156 -15.714844 C 4.585938 -15.636719 4.386719 -15.539062 4.183594 -15.4375 C 3.960938 -15.339844 3.757812 -15.238281 3.582031 -15.113281 C 3.382812 -14.988281 3.207031 -14.835938 3.058594 -14.6875 C 2.882812 -14.511719 2.679688 -14.386719 2.554688 -14.210938 C 2.40625 -14.035156 2.332031 -13.808594 2.207031 -13.609375 C 2.105469 -13.40625 1.980469 -13.234375 1.878906 -13.007812 C 1.804688 -12.808594 1.753906 -12.582031 1.703125 -12.355469 C 1.652344 -12.128906 1.605469 -11.90625 1.578125 -11.679688 C 1.554688 -11.453125 1.554688 -11.226562 1.554688 -10.976562 C 1.554688 -10.75 1.554688 -10.5 1.605469 -10.277344 C 1.628906 -10.050781 1.703125 -9.800781 1.78125 -9.597656 C 1.855469 -9.375 2.003906 -9.171875 2.105469 -8.972656 C 2.230469 -8.773438 2.382812 -8.570312 2.53125 -8.394531 C 2.679688 -8.21875 2.882812 -8.09375 3.082031 -7.945312 C 3.257812 -7.792969 3.457031 -7.667969 3.660156 -7.570312 C 3.859375 -7.46875 4.085938 -7.367188 4.3125 -7.292969 C 4.511719 -7.21875 4.738281 -7.144531 4.9375 -7.066406 C 5.164062 -6.992188 5.363281 -6.917969 5.589844 -6.84375 C 5.789062 -6.765625 6.015625 -6.691406 6.214844 -6.617188 C 6.441406 -6.542969 6.640625 -6.492188 6.867188 -6.390625 C 7.066406 -6.316406 7.269531 -6.214844 7.46875 -6.140625 C 7.695312 -6.066406 7.871094 -5.914062 8.09375 -5.839844 C 8.296875 -5.765625 8.519531 -5.714844 8.722656 -5.613281 C 8.921875 -5.488281 9.097656 -5.363281 9.246094 -5.210938 C 9.398438 -5.039062 9.523438 -4.863281 9.574219 -4.636719 C 9.597656 -4.4375 9.625 -4.210938 9.574219 -3.960938 C 9.523438 -3.757812 9.421875 -3.535156 9.273438 -3.308594 C 9.148438 -3.132812 8.945312 -3.007812 8.746094 -2.855469 C 8.570312 -2.707031 8.34375 -2.605469 8.144531 -2.507812 C 7.917969 -2.40625 7.71875 -2.304688 7.492188 -2.253906 C 7.242188 -2.207031 7.015625 -2.230469 6.792969 -2.253906 C 6.542969 -2.28125 6.316406 -2.332031 6.066406 -2.40625 C 5.839844 -2.480469 5.613281 -2.582031 5.386719 -2.707031 C 5.164062 -2.808594 4.9375 -2.90625 4.738281 -3.03125 C 4.511719 -3.15625 4.335938 -3.332031 4.136719 -3.484375 C 3.933594 -3.660156 3.710938 -3.785156 3.582031 -3.960938 C 3.382812 -4.183594 3.257812 -4.335938 3.082031 -4.386719 C 2.882812 -4.4375 2.730469 -4.3125 2.507812 -4.136719 C 2.355469 -4.035156 2.207031 -3.882812 2.03125 -3.710938 C 1.828125 -3.507812 1.628906 -3.332031 1.503906 -3.183594 C 1.328125 -2.957031 1.179688 -2.730469 1.253906 -2.507812 C 1.328125 -2.332031 1.480469 -2.128906 1.730469 -1.929688 C 1.828125 -1.804688 1.980469 -1.628906 2.230469 -1.429688 C 2.382812 -1.277344 2.554688 -1.128906 2.757812 -0.976562 C 2.933594 -0.851562 3.15625 -0.75 3.359375 -0.625 C 3.558594 -0.5 3.757812 -0.402344 3.984375 -0.300781 C 4.210938 -0.199219 4.4375 -0.175781 4.660156 -0.125 C 4.886719 -0.0507812 5.085938 0.101562 5.339844 0.125 C 5.539062 0.175781 5.789062 0.148438 6.039062 0.175781 C 6.265625 0.199219 6.492188 0.277344 6.742188 0.277344 C 6.96875 0.277344 7.191406 0.25 7.394531 0.25 C 7.644531 0.226562 7.84375 0.175781 8.070312 0.148438 C 8.296875 0.125 8.496094 0.0507812 8.722656 0 C 8.945312 -0.0507812 9.148438 -0.101562 9.347656 -0.175781 C 9.574219 -0.25 9.773438 -0.324219 9.976562 -0.425781 C 10.175781 -0.527344 10.375 -0.625 10.550781 -0.75 C 10.75 -0.878906 10.902344 -1.050781 11.050781 -1.203125 C 11.226562 -1.328125 11.429688 -1.453125 11.554688 -1.628906 C 11.703125 -1.804688 11.804688 -2.003906 11.90625 -2.207031 C 12.003906 -2.40625 12.128906 -2.582031 12.207031 -2.808594 C 12.28125 -3.007812 12.332031 -3.234375 12.378906 -3.457031 C 12.40625 -3.660156 12.40625 -3.882812 12.40625 -4.109375 C 12.40625 -4.335938 12.40625 -4.5625 12.378906 -4.785156 C 12.355469 -4.988281 12.304688 -5.210938 12.253906 -5.414062 C 12.207031 -5.640625 12.105469 -5.839844 12.03125 -6.039062 C 11.953125 -6.242188 11.90625 -6.441406 11.777344 -6.640625 C 11.679688 -6.816406 11.527344 -6.992188 11.402344 -7.167969 C 11.253906 -7.316406 11.078125 -7.46875 10.925781 -7.617188 C 10.75 -7.746094 10.625 -7.917969 10.425781 -8.042969 C 10.25 -8.171875 10.074219 -8.269531 9.875 -8.371094 C 9.675781 -8.472656 9.472656 -8.546875 9.246094 -8.621094 C 9.046875 -8.671875 8.847656 -8.722656 8.644531 -8.796875 C 8.472656 -8.847656 8.269531 -8.945312 8.070312 -8.996094 C 7.894531 -9.074219 7.695312 -9.121094 7.492188 -9.199219 C 7.292969 -9.273438 7.09375 -9.296875 6.890625 -9.375 C 6.691406 -9.449219 6.464844 -9.5 6.242188 -9.597656 C 6.039062 -9.675781 5.839844 -9.800781 5.640625 -9.898438 C 5.414062 -9.976562 5.210938 -10.074219 5.011719 -10.199219 C 4.8125 -10.351562 4.660156 -10.5 4.535156 -10.675781 C 4.386719 -10.851562 4.261719 -11.078125 4.234375 -11.304688 C 4.234375 -11.527344 4.3125 -11.753906 4.359375 -11.953125 Z M 4.359375 -11.953125 "/></g></g></g><g fill="#502273" fill-opacity="1"><g transform="translate(290.223874, 358.153175)"><g><path d="M 7.667969 -13.058594 C 7.917969 -13.058594 8.171875 -13.03125 8.371094 -13.03125 C 8.621094 -13.03125 8.847656 -13.03125 9.074219 -13.03125 C 9.324219 -13.03125 9.546875 -13.03125 9.773438 -13.03125 C 10.074219 -13.03125 10.300781 -13.105469 10.476562 -13.207031 C 10.675781 -13.332031 10.828125 -13.507812 10.875 -13.785156 C 10.925781 -13.984375 10.953125 -14.234375 10.953125 -14.511719 C 10.953125 -14.761719 10.902344 -14.988281 10.851562 -15.164062 C 10.800781 -15.386719 10.675781 -15.589844 10.476562 -15.664062 C 10.324219 -15.738281 10.101562 -15.765625 9.824219 -15.765625 C 9.597656 -15.765625 9.375 -15.765625 9.148438 -15.789062 C 8.921875 -15.789062 8.671875 -15.765625 8.445312 -15.765625 C 8.21875 -15.765625 7.996094 -15.789062 7.769531 -15.789062 C 7.542969 -15.789062 7.316406 -15.765625 7.09375 -15.765625 C 6.867188 -15.765625 6.640625 -15.8125 6.390625 -15.8125 C 6.164062 -15.8125 5.941406 -15.765625 5.714844 -15.765625 C 5.488281 -15.765625 5.261719 -15.789062 5.039062 -15.789062 C 4.8125 -15.789062 4.585938 -15.789062 4.335938 -15.789062 C 4.109375 -15.8125 3.882812 -15.839844 3.660156 -15.863281 C 3.433594 -15.863281 3.207031 -15.839844 2.980469 -15.839844 C 2.757812 -15.839844 2.53125 -15.863281 2.28125 -15.863281 C 2.054688 -15.863281 1.828125 -15.863281 1.605469 -15.863281 C 1.378906 -15.890625 1.101562 -15.863281 0.953125 -15.738281 C 0.800781 -15.589844 0.675781 -15.414062 0.625 -15.238281 C 0.550781 -15.011719 0.601562 -14.785156 0.601562 -14.609375 C 0.625 -14.386719 0.527344 -14.136719 0.550781 -13.910156 C 0.578125 -13.683594 0.675781 -13.484375 0.902344 -13.308594 C 1.050781 -13.183594 1.253906 -13.082031 1.503906 -13.082031 C 1.703125 -13.058594 1.953125 -13.082031 2.15625 -13.058594 C 2.40625 -13.058594 2.65625 -13.058594 2.882812 -13.03125 C 3.132812 -13.007812 3.382812 -13.007812 3.582031 -12.980469 C 4.035156 -12.957031 4.085938 -13.183594 4.3125 -12.90625 C 4.535156 -12.632812 4.3125 -12.605469 4.3125 -12.15625 C 4.3125 -11.929688 4.285156 -11.679688 4.3125 -11.402344 C 4.3125 -11.152344 4.359375 -10.902344 4.359375 -10.652344 C 4.359375 -10.449219 4.285156 -10.226562 4.285156 -9.976562 C 4.285156 -9.75 4.3125 -9.523438 4.3125 -9.296875 C 4.3125 -9.074219 4.285156 -8.847656 4.285156 -8.621094 C 4.285156 -8.394531 4.261719 -8.171875 4.261719 -7.945312 C 4.261719 -7.71875 4.285156 -7.46875 4.285156 -7.242188 C 4.285156 -7.015625 4.285156 -6.792969 4.285156 -6.566406 C 4.285156 -6.339844 4.3125 -6.113281 4.3125 -5.890625 C 4.3125 -5.664062 4.335938 -5.414062 4.335938 -5.1875 C 4.335938 -4.960938 4.285156 -4.738281 4.3125 -4.511719 C 4.3125 -4.285156 4.335938 -4.058594 4.335938 -3.835938 C 4.335938 -3.609375 4.359375 -3.382812 4.359375 -3.15625 C 4.359375 -2.933594 4.3125 -2.707031 4.3125 -2.480469 C 4.3125 -2.253906 4.3125 -2.03125 4.335938 -1.804688 C 4.335938 -1.578125 4.359375 -1.351562 4.359375 -1.128906 C 4.359375 -0.777344 4.386719 -0.550781 4.460938 -0.375 C 4.5625 -0.0742188 4.738281 0.0507812 5.011719 0.0742188 C 5.238281 0.0742188 5.488281 0.0507812 5.789062 0.0507812 C 6.113281 0.0234375 6.339844 -0.0234375 6.515625 -0.0742188 C 6.84375 -0.125 6.941406 -0.25 7.015625 -0.476562 C 7.09375 -0.652344 7.117188 -0.878906 7.117188 -1.179688 C 7.117188 -1.402344 7.09375 -1.652344 7.09375 -1.90625 C 7.09375 -2.128906 7.117188 -2.382812 7.09375 -2.632812 C 7.09375 -2.855469 7.066406 -3.109375 7.066406 -3.359375 C 7.066406 -3.582031 7.09375 -3.835938 7.09375 -4.058594 C 7.09375 -4.3125 7.042969 -4.5625 7.042969 -4.785156 C 7.042969 -5.039062 7.144531 -5.261719 7.144531 -5.511719 C 7.144531 -5.738281 7.144531 -5.988281 7.117188 -6.214844 C 7.117188 -6.464844 7.09375 -6.714844 7.09375 -6.941406 C 7.09375 -7.167969 7.117188 -7.394531 7.117188 -7.617188 C 7.117188 -7.84375 7.042969 -8.070312 7.042969 -8.296875 C 7.042969 -8.519531 7.015625 -8.746094 7.015625 -8.972656 C 7.015625 -9.199219 6.992188 -9.421875 6.992188 -9.648438 C 6.992188 -9.875 6.992188 -10.101562 6.992188 -10.324219 C 6.992188 -10.550781 6.96875 -10.777344 6.96875 -11.003906 C 6.96875 -11.226562 7.015625 -11.453125 7.015625 -11.703125 C 7.015625 -11.90625 6.992188 -12.128906 6.992188 -12.378906 C 6.96875 -12.605469 7.015625 -12.78125 6.992188 -13.03125 C 7.242188 -13.03125 7.445312 -13.058594 7.667969 -13.058594 Z M 7.667969 -13.058594 "/></g></g></g><g fill="#502273" fill-opacity="1"><g transform="translate(308.192792, 358.153175)"><g><path d="M 13.40625 -9.046875 C 13.40625 -9.246094 13.308594 -9.449219 13.308594 -9.648438 C 13.28125 -9.875 13.257812 -10.074219 13.234375 -10.277344 C 13.207031 -10.476562 13.234375 -10.703125 13.183594 -10.902344 C 13.105469 -11.128906 12.980469 -11.328125 12.933594 -11.578125 C 12.855469 -11.804688 12.808594 -12.03125 12.730469 -12.253906 C 12.65625 -12.480469 12.605469 -12.730469 12.507812 -12.933594 C 12.429688 -13.15625 12.355469 -13.382812 12.230469 -13.609375 C 12.128906 -13.808594 12.003906 -14.035156 11.855469 -14.210938 C 11.730469 -14.410156 11.578125 -14.609375 11.402344 -14.785156 C 11.226562 -14.9375 11.003906 -15.039062 10.800781 -15.1875 C 10.601562 -15.3125 10.402344 -15.4375 10.175781 -15.539062 C 9.976562 -15.636719 9.722656 -15.6875 9.5 -15.765625 C 9.273438 -15.8125 9.046875 -15.890625 8.796875 -15.9375 C 8.570312 -15.988281 8.34375 -16.015625 8.09375 -16.015625 C 7.871094 -16.039062 7.617188 -16.039062 7.394531 -16.039062 C 7.144531 -16.039062 6.917969 -16.039062 6.667969 -15.988281 C 6.441406 -15.964844 6.214844 -15.914062 5.964844 -15.863281 C 5.738281 -15.8125 5.488281 -15.8125 5.261719 -15.738281 C 5.039062 -15.636719 4.835938 -15.511719 4.636719 -15.386719 C 4.410156 -15.289062 4.234375 -15.164062 4.035156 -15.011719 C 3.835938 -14.886719 3.582031 -14.8125 3.410156 -14.636719 C 3.234375 -14.484375 3.109375 -14.285156 2.933594 -14.085938 C 2.808594 -13.910156 2.65625 -13.707031 2.53125 -13.507812 C 2.40625 -13.308594 2.332031 -13.058594 2.253906 -12.832031 C 2.15625 -12.632812 2.082031 -12.40625 2.003906 -12.15625 C 1.953125 -11.929688 1.855469 -11.703125 1.804688 -11.476562 C 1.753906 -11.226562 1.652344 -11.003906 1.605469 -10.777344 C 1.554688 -10.527344 1.578125 -10.277344 1.554688 -10.050781 C 1.527344 -9.800781 1.503906 -9.574219 1.480469 -9.324219 C 1.453125 -9.097656 1.402344 -8.847656 1.402344 -8.621094 C 1.378906 -8.371094 1.378906 -8.144531 1.402344 -7.894531 C 1.402344 -7.644531 1.429688 -7.417969 1.453125 -7.167969 C 1.453125 -6.941406 1.453125 -6.691406 1.480469 -6.441406 C 1.503906 -6.214844 1.554688 -5.988281 1.605469 -5.738281 C 1.652344 -5.511719 1.628906 -5.261719 1.703125 -5.011719 C 1.753906 -4.8125 1.878906 -4.613281 1.929688 -4.386719 C 2.003906 -4.160156 2.054688 -3.933594 2.128906 -3.734375 C 2.207031 -3.507812 2.304688 -3.308594 2.40625 -3.109375 C 2.507812 -2.90625 2.605469 -2.707031 2.707031 -2.507812 C 2.832031 -2.304688 2.980469 -2.128906 3.109375 -1.929688 C 3.257812 -1.730469 3.382812 -1.554688 3.558594 -1.378906 C 3.734375 -1.203125 3.910156 -1.027344 4.085938 -0.878906 C 4.261719 -0.726562 4.484375 -0.601562 4.6875 -0.476562 C 4.886719 -0.351562 5.113281 -0.226562 5.3125 -0.125 C 5.539062 -0.0234375 5.789062 0.0234375 6.015625 0.0742188 C 6.242188 0.148438 6.492188 0.175781 6.714844 0.226562 C 6.96875 0.25 7.191406 0.25 7.445312 0.25 C 7.667969 0.25 7.917969 0.25 8.144531 0.199219 C 8.394531 0.175781 8.621094 0.125 8.847656 0.0507812 C 9.074219 -0.0234375 9.296875 -0.101562 9.523438 -0.199219 C 9.75 -0.300781 9.949219 -0.425781 10.148438 -0.550781 C 10.351562 -0.703125 10.550781 -0.800781 10.75 -0.976562 C 10.925781 -1.128906 11.128906 -1.253906 11.304688 -1.429688 C 11.453125 -1.605469 11.578125 -1.828125 11.703125 -2.03125 C 11.828125 -2.230469 11.953125 -2.40625 12.078125 -2.605469 C 12.179688 -2.78125 12.304688 -2.980469 12.40625 -3.183594 C 12.507812 -3.382812 12.582031 -3.582031 12.679688 -3.808594 C 12.757812 -4.011719 12.808594 -4.234375 12.882812 -4.4375 C 12.957031 -4.660156 13.058594 -4.863281 13.105469 -5.0625 C 13.15625 -5.289062 13.234375 -5.511719 13.28125 -5.738281 C 13.308594 -5.941406 13.332031 -6.164062 13.359375 -6.390625 C 13.382812 -6.617188 13.40625 -6.84375 13.433594 -7.066406 C 13.433594 -7.292969 13.433594 -7.519531 13.433594 -7.746094 C 13.433594 -7.96875 13.433594 -8.195312 13.433594 -8.421875 C 13.40625 -8.621094 13.433594 -8.820312 13.40625 -9.046875 Z M 4.011719 -8.472656 C 4.035156 -8.695312 4.011719 -8.898438 4.035156 -9.121094 C 4.058594 -9.324219 4.058594 -9.546875 4.085938 -9.75 C 4.109375 -9.976562 4.160156 -10.175781 4.210938 -10.375 C 4.234375 -10.601562 4.3125 -10.800781 4.359375 -11.003906 C 4.410156 -11.226562 4.4375 -11.476562 4.535156 -11.679688 C 4.660156 -11.878906 4.785156 -12.078125 4.914062 -12.253906 C 5.0625 -12.457031 5.261719 -12.605469 5.4375 -12.757812 C 5.613281 -12.882812 5.8125 -13.03125 6.015625 -13.132812 C 6.214844 -13.234375 6.441406 -13.359375 6.667969 -13.40625 C 6.890625 -13.484375 7.144531 -13.484375 7.367188 -13.484375 C 7.59375 -13.484375 7.820312 -13.484375 8.042969 -13.40625 C 8.246094 -13.359375 8.445312 -13.234375 8.644531 -13.105469 C 8.847656 -13.007812 9.046875 -12.933594 9.222656 -12.78125 C 9.398438 -12.632812 9.523438 -12.429688 9.675781 -12.253906 C 9.800781 -12.078125 9.925781 -11.90625 10.050781 -11.679688 C 10.148438 -11.503906 10.226562 -11.277344 10.300781 -11.050781 C 10.375 -10.828125 10.449219 -10.601562 10.5 -10.375 C 10.550781 -10.148438 10.601562 -9.925781 10.652344 -9.699219 C 10.675781 -9.449219 10.703125 -9.222656 10.726562 -8.996094 C 10.75 -8.746094 10.800781 -8.519531 10.828125 -8.296875 C 10.828125 -8.042969 10.800781 -7.820312 10.800781 -7.59375 C 10.800781 -7.34375 10.800781 -7.117188 10.777344 -6.867188 C 10.75 -6.640625 10.703125 -6.414062 10.652344 -6.164062 C 10.601562 -5.941406 10.550781 -5.714844 10.5 -5.488281 C 10.425781 -5.261719 10.351562 -5.039062 10.25 -4.8125 C 10.175781 -4.585938 10.074219 -4.386719 9.976562 -4.210938 C 9.875 -4.011719 9.75 -3.808594 9.625 -3.660156 C 9.472656 -3.484375 9.324219 -3.308594 9.148438 -3.183594 C 8.972656 -3.03125 8.773438 -2.957031 8.570312 -2.855469 C 8.371094 -2.757812 8.144531 -2.757812 7.917969 -2.730469 C 7.71875 -2.679688 7.492188 -2.632812 7.269531 -2.65625 C 7.042969 -2.679688 6.816406 -2.707031 6.617188 -2.78125 C 6.390625 -2.832031 6.164062 -2.933594 5.988281 -3.03125 C 5.789062 -3.132812 5.613281 -3.28125 5.464844 -3.433594 C 5.289062 -3.582031 5.136719 -3.757812 5.011719 -3.960938 C 4.886719 -4.136719 4.8125 -4.359375 4.738281 -4.5625 C 4.636719 -4.761719 4.585938 -4.988281 4.511719 -5.210938 C 4.4375 -5.414062 4.359375 -5.640625 4.3125 -5.839844 C 4.261719 -6.066406 4.234375 -6.289062 4.183594 -6.515625 C 4.160156 -6.742188 4.085938 -6.96875 4.058594 -7.167969 C 4.011719 -7.394531 3.984375 -7.617188 3.933594 -7.84375 C 3.960938 -8.042969 3.984375 -8.269531 4.011719 -8.472656 Z M 4.011719 -8.472656 "/></g></g></g><g fill="#502273" fill-opacity="1"><g transform="translate(329.494324, 358.153175)"><g><path d="M 5.386719 -6.191406 C 5.640625 -6.242188 5.863281 -6.367188 6.066406 -6.390625 C 6.339844 -6.414062 6.589844 -6.390625 6.792969 -6.367188 C 7.066406 -6.367188 7.269531 -6.316406 7.46875 -6.191406 C 7.644531 -6.089844 7.820312 -5.941406 7.96875 -5.714844 C 8.070312 -5.539062 8.171875 -5.3125 8.296875 -5.0625 C 8.371094 -4.863281 8.445312 -4.636719 8.570312 -4.410156 C 8.644531 -4.210938 8.796875 -4.011719 8.898438 -3.785156 C 8.996094 -3.558594 9.046875 -3.332031 9.148438 -3.109375 C 9.246094 -2.882812 9.347656 -2.679688 9.449219 -2.457031 C 9.546875 -2.230469 9.699219 -2.054688 9.800781 -1.828125 C 9.898438 -1.628906 10.023438 -1.402344 10.101562 -1.203125 C 10.226562 -0.953125 10.277344 -0.726562 10.375 -0.550781 C 10.527344 -0.300781 10.726562 -0.199219 10.875 -0.101562 C 11.078125 0 11.253906 0 11.527344 0 C 11.730469 -0.0234375 11.953125 -0.0234375 12.230469 -0.0234375 C 12.480469 -0.0234375 12.707031 0 12.855469 -0.0234375 C 13.132812 -0.0742188 13.257812 -0.175781 13.234375 -0.425781 C 13.207031 -0.578125 13.183594 -0.800781 13.082031 -1.050781 C 13.03125 -1.226562 12.882812 -1.402344 12.78125 -1.628906 C 12.707031 -1.828125 12.632812 -2.03125 12.53125 -2.253906 C 12.457031 -2.457031 12.304688 -2.65625 12.207031 -2.882812 C 12.128906 -3.082031 12.03125 -3.28125 11.953125 -3.507812 C 11.855469 -3.710938 11.753906 -3.910156 11.652344 -4.109375 C 11.554688 -4.335938 11.476562 -4.535156 11.378906 -4.738281 C 11.277344 -4.960938 11.203125 -5.164062 11.101562 -5.363281 C 11.003906 -5.589844 10.902344 -5.789062 10.828125 -5.988281 C 10.726562 -6.191406 10.675781 -6.441406 10.601562 -6.640625 C 10.527344 -6.792969 10.527344 -6.992188 10.675781 -7.117188 C 10.902344 -7.316406 11.101562 -7.519531 11.277344 -7.667969 C 11.503906 -7.871094 11.753906 -7.996094 11.953125 -8.195312 C 12.105469 -8.371094 12.207031 -8.570312 12.332031 -8.746094 C 12.457031 -8.921875 12.582031 -9.121094 12.679688 -9.324219 C 12.757812 -9.523438 12.808594 -9.75 12.882812 -9.949219 C 12.933594 -10.175781 12.980469 -10.375 13.007812 -10.601562 C 13.03125 -10.800781 13.082031 -11.027344 13.082031 -11.253906 C 13.082031 -11.476562 13.105469 -11.703125 13.082031 -11.929688 C 13.058594 -12.128906 12.957031 -12.355469 12.882812 -12.554688 C 12.832031 -12.78125 12.730469 -12.980469 12.65625 -13.183594 C 12.554688 -13.382812 12.480469 -13.582031 12.355469 -13.757812 C 12.230469 -13.933594 12.105469 -14.109375 11.953125 -14.285156 C 11.804688 -14.4375 11.628906 -14.585938 11.453125 -14.710938 C 11.277344 -14.863281 11.128906 -14.988281 10.925781 -15.113281 C 10.726562 -15.210938 10.527344 -15.289062 10.324219 -15.363281 C 10.125 -15.4375 9.925781 -15.5625 9.699219 -15.589844 C 9.449219 -15.636719 9.222656 -15.613281 8.972656 -15.664062 C 8.746094 -15.6875 8.519531 -15.738281 8.269531 -15.765625 C 8.042969 -15.789062 7.792969 -15.789062 7.570312 -15.8125 C 7.316406 -15.8125 7.09375 -15.839844 6.84375 -15.863281 C 6.617188 -15.863281 6.367188 -15.839844 6.140625 -15.863281 C 5.914062 -15.863281 5.664062 -15.863281 5.4375 -15.863281 C 5.1875 -15.863281 4.960938 -15.890625 4.710938 -15.890625 C 4.484375 -15.863281 4.234375 -15.839844 4.011719 -15.839844 C 3.734375 -15.839844 3.484375 -15.863281 3.257812 -15.863281 C 2.957031 -15.863281 2.730469 -15.8125 2.53125 -15.738281 C 2.304688 -15.636719 2.179688 -15.488281 2.105469 -15.1875 C 2.082031 -14.988281 2.054688 -14.738281 2.054688 -14.4375 C 2.03125 -14.210938 2.03125 -13.984375 2.03125 -13.757812 C 2.03125 -13.558594 2.03125 -13.332031 2.03125 -13.105469 C 2.03125 -12.882812 2.03125 -12.65625 2.03125 -12.429688 C 2.03125 -12.207031 2.03125 -11.980469 2.03125 -11.753906 C 2.03125 -11.527344 2.003906 -11.304688 1.980469 -11.078125 C 1.980469 -10.851562 1.929688 -10.625 1.929688 -10.402344 C 1.929688 -10.175781 1.980469 -9.949219 1.980469 -9.722656 C 1.980469 -9.5 1.953125 -9.273438 1.953125 -9.046875 C 1.953125 -8.820312 1.953125 -8.597656 1.953125 -8.371094 C 1.953125 -8.144531 1.953125 -7.917969 1.953125 -7.695312 C 1.953125 -7.46875 1.980469 -7.242188 1.980469 -7.015625 C 1.980469 -6.792969 1.929688 -6.589844 1.929688 -6.367188 C 1.929688 -6.140625 1.929688 -5.914062 1.929688 -5.6875 C 1.929688 -5.464844 1.953125 -5.238281 1.953125 -5.011719 C 1.953125 -4.785156 1.929688 -4.5625 1.929688 -4.359375 C 1.953125 -4.136719 1.953125 -3.910156 1.953125 -3.683594 C 1.953125 -3.457031 1.953125 -3.234375 1.953125 -3.007812 C 1.953125 -2.78125 2.003906 -2.554688 2.003906 -2.332031 C 2.003906 -2.128906 1.953125 -1.90625 1.929688 -1.652344 C 1.90625 -1.402344 1.929688 -1.179688 1.929688 -0.953125 C 1.953125 -0.675781 1.929688 -0.425781 2.03125 -0.25 C 2.105469 -0.0742188 2.40625 -0.0507812 2.679688 0 C 2.957031 0.0507812 3.257812 0.0507812 3.410156 0.0234375 C 3.609375 -0.0234375 3.835938 0 4.035156 -0.0234375 C 4.285156 -0.0742188 4.511719 -0.125 4.585938 -0.324219 C 4.660156 -0.527344 4.6875 -0.800781 4.6875 -1.078125 C 4.710938 -1.328125 4.710938 -1.605469 4.710938 -1.855469 C 4.6875 -2.15625 4.6875 -2.40625 4.6875 -2.632812 C 4.6875 -2.855469 4.6875 -3.109375 4.6875 -3.332031 C 4.6875 -3.558594 4.6875 -3.808594 4.6875 -4.035156 C 4.6875 -4.261719 4.636719 -4.511719 4.636719 -4.738281 C 4.636719 -4.960938 4.710938 -5.210938 4.710938 -5.4375 C 4.710938 -5.664062 4.636719 -5.914062 4.636719 -6.140625 C 4.914062 -6.191406 5.164062 -6.164062 5.386719 -6.191406 Z M 4.761719 -9.675781 C 4.761719 -9.925781 4.785156 -10.148438 4.785156 -10.375 C 4.785156 -10.625 4.785156 -10.851562 4.785156 -11.078125 C 4.785156 -11.304688 4.761719 -11.554688 4.761719 -11.777344 C 4.761719 -12.003906 4.785156 -12.253906 4.785156 -12.480469 C 4.785156 -12.707031 4.785156 -12.90625 4.785156 -13.15625 C 5.039062 -13.15625 5.238281 -13.183594 5.464844 -13.183594 C 5.6875 -13.183594 5.914062 -13.183594 6.140625 -13.183594 C 6.390625 -13.183594 6.617188 -13.207031 6.84375 -13.207031 C 7.066406 -13.207031 7.292969 -13.207031 7.519531 -13.207031 C 7.746094 -13.183594 7.996094 -13.207031 8.21875 -13.207031 C 8.445312 -13.183594 8.644531 -13.132812 8.820312 -13.058594 C 9.046875 -13.007812 9.273438 -12.980469 9.449219 -12.882812 C 9.625 -12.78125 9.773438 -12.605469 9.925781 -12.480469 C 10.074219 -12.332031 10.25 -12.179688 10.324219 -12.003906 C 10.425781 -11.804688 10.476562 -11.578125 10.476562 -11.378906 C 10.5 -11.128906 10.425781 -10.902344 10.351562 -10.652344 C 10.277344 -10.425781 10.101562 -10.25 9.949219 -10.050781 C 9.800781 -9.875 9.648438 -9.675781 9.449219 -9.523438 C 9.273438 -9.398438 9.046875 -9.273438 8.820312 -9.199219 C 8.597656 -9.097656 8.371094 -9.046875 8.121094 -9.023438 C 7.917969 -9.023438 7.695312 -8.972656 7.46875 -8.972656 C 7.242188 -8.972656 7.015625 -8.972656 6.792969 -8.972656 C 6.566406 -8.972656 6.339844 -8.921875 6.113281 -8.921875 C 5.890625 -8.921875 5.664062 -8.996094 5.4375 -8.996094 C 5.210938 -9.023438 4.988281 -8.945312 4.738281 -8.945312 C 4.738281 -9.199219 4.785156 -9.449219 4.761719 -9.675781 Z M 4.761719 -9.675781 "/></g></g></g><g fill="#502273" fill-opacity="1"><g transform="translate(350.49517, 358.153175)"><g><path d="M 5.488281 -12.980469 C 5.738281 -12.980469 5.964844 -13.007812 6.214844 -13.007812 C 6.441406 -13.007812 6.667969 -12.957031 6.917969 -12.957031 C 7.144531 -12.957031 7.367188 -12.980469 7.617188 -12.980469 C 7.84375 -12.980469 8.09375 -12.957031 8.320312 -12.957031 C 8.546875 -12.957031 8.796875 -12.957031 9.023438 -12.957031 C 9.246094 -12.957031 9.5 -13.007812 9.722656 -13.007812 C 9.949219 -13.007812 10.199219 -13.007812 10.425781 -13.007812 C 10.726562 -13.007812 10.976562 -12.980469 11.175781 -13.03125 C 11.453125 -13.082031 11.605469 -13.183594 11.730469 -13.433594 C 11.828125 -13.609375 11.90625 -13.835938 11.929688 -14.160156 C 11.929688 -14.410156 11.953125 -14.660156 11.953125 -14.863281 C 11.953125 -15.136719 11.929688 -15.363281 11.777344 -15.539062 C 11.628906 -15.636719 11.453125 -15.789062 11.128906 -15.839844 C 10.925781 -15.863281 10.675781 -15.8125 10.402344 -15.8125 C 10.175781 -15.8125 9.949219 -15.839844 9.75 -15.8125 C 9.523438 -15.8125 9.296875 -15.890625 9.097656 -15.863281 C 8.871094 -15.863281 8.644531 -15.8125 8.421875 -15.8125 C 8.21875 -15.789062 7.996094 -15.765625 7.769531 -15.738281 C 7.570312 -15.738281 7.34375 -15.765625 7.117188 -15.765625 C 6.890625 -15.738281 6.640625 -15.6875 6.414062 -15.6875 C 6.164062 -15.6875 5.914062 -15.6875 5.6875 -15.714844 C 5.4375 -15.714844 5.210938 -15.765625 4.960938 -15.789062 C 4.738281 -15.8125 4.484375 -15.8125 4.261719 -15.839844 C 4.011719 -15.839844 3.757812 -15.839844 3.535156 -15.839844 C 3.28125 -15.839844 3.058594 -15.914062 2.808594 -15.914062 C 2.554688 -15.914062 2.355469 -15.839844 2.105469 -15.8125 C 2.105469 -15.613281 2.082031 -15.414062 2.082031 -15.1875 C 2.082031 -14.960938 2.03125 -14.738281 2.003906 -14.511719 C 2.003906 -14.285156 2.054688 -14.058594 2.054688 -13.859375 C 2.054688 -13.632812 2.03125 -13.40625 2.03125 -13.183594 C 2.003906 -12.957031 2.003906 -12.730469 2.003906 -12.507812 C 2.003906 -12.28125 2.03125 -12.054688 2.03125 -11.855469 C 2.03125 -11.628906 2.03125 -11.402344 2.03125 -11.175781 C 2.03125 -10.953125 1.953125 -10.726562 1.953125 -10.5 C 1.953125 -10.300781 2.003906 -10.074219 2.003906 -9.847656 C 2.003906 -9.625 1.980469 -9.398438 1.980469 -9.171875 C 1.980469 -8.972656 2.03125 -8.746094 2.003906 -8.519531 C 2.003906 -8.296875 1.929688 -8.070312 1.90625 -7.84375 C 1.90625 -7.644531 1.980469 -7.417969 1.953125 -7.191406 C 1.953125 -6.96875 1.929688 -6.742188 1.90625 -6.542969 C 1.90625 -6.316406 1.929688 -6.089844 1.929688 -5.863281 C 1.929688 -5.640625 1.929688 -5.414062 1.929688 -5.210938 C 1.929688 -4.988281 1.929688 -4.761719 1.929688 -4.535156 C 1.929688 -4.335938 1.90625 -4.109375 1.90625 -3.882812 C 1.878906 -3.660156 1.980469 -3.433594 1.980469 -3.207031 C 1.980469 -3.007812 1.90625 -2.78125 1.90625 -2.554688 C 1.90625 -2.332031 1.953125 -2.105469 1.953125 -1.90625 C 1.953125 -1.679688 1.90625 -1.453125 1.90625 -1.226562 C 1.90625 -1.050781 2.082031 -0.777344 2.304688 -0.550781 C 2.53125 -0.324219 2.808594 -0.175781 3.007812 -0.148438 C 3.207031 -0.148438 3.433594 -0.125 3.660156 -0.125 C 3.859375 -0.101562 4.085938 -0.125 4.3125 -0.101562 C 4.511719 -0.101562 4.738281 -0.0234375 4.960938 0 C 5.164062 0 5.386719 -0.0742188 5.613281 -0.0742188 C 5.839844 -0.0742188 6.039062 -0.0507812 6.265625 -0.0507812 C 6.492188 -0.0507812 6.714844 0.0234375 6.917969 0.0507812 C 7.144531 0.0507812 7.367188 -0.0234375 7.570312 -0.0234375 C 7.792969 0 8.019531 0.0234375 8.246094 0.0234375 C 8.445312 0.0234375 8.671875 0.0507812 8.898438 0.0507812 C 9.097656 0.0507812 9.324219 0.0234375 9.546875 0.0234375 C 9.773438 0.0234375 9.976562 -0.0234375 10.199219 -0.0234375 C 10.425781 -0.0234375 10.625 0.0234375 10.851562 0.0234375 C 11.101562 0.0234375 11.304688 -0.0507812 11.429688 -0.175781 C 11.605469 -0.300781 11.652344 -0.476562 11.703125 -0.703125 C 11.730469 -0.878906 11.703125 -1.078125 11.628906 -1.277344 C 11.578125 -1.480469 11.527344 -1.679688 11.429688 -1.855469 C 11.304688 -2.054688 11.152344 -2.230469 11.027344 -2.382812 C 10.875 -2.53125 10.703125 -2.632812 10.425781 -2.65625 C 10.199219 -2.679688 9.949219 -2.65625 9.699219 -2.65625 C 9.449219 -2.65625 9.199219 -2.707031 8.945312 -2.707031 C 8.695312 -2.707031 8.445312 -2.730469 8.195312 -2.730469 C 7.945312 -2.730469 7.71875 -2.679688 7.46875 -2.679688 C 7.21875 -2.679688 6.96875 -2.632812 6.714844 -2.65625 C 6.464844 -2.65625 6.242188 -2.65625 5.988281 -2.65625 C 5.738281 -2.65625 5.488281 -2.632812 5.261719 -2.632812 C 4.835938 -2.632812 4.863281 -2.480469 4.585938 -2.707031 C 4.335938 -2.882812 4.484375 -2.90625 4.460938 -3.28125 C 4.460938 -3.457031 4.484375 -3.683594 4.484375 -3.910156 C 4.484375 -4.085938 4.460938 -4.3125 4.460938 -4.511719 C 4.460938 -4.710938 4.460938 -4.9375 4.484375 -5.113281 C 4.484375 -5.339844 4.460938 -5.5625 4.484375 -5.789062 C 4.511719 -5.988281 4.535156 -6.191406 4.613281 -6.441406 C 4.8125 -6.441406 5.039062 -6.414062 5.261719 -6.414062 C 5.488281 -6.390625 5.714844 -6.414062 5.914062 -6.414062 C 6.140625 -6.414062 6.367188 -6.390625 6.589844 -6.390625 C 6.816406 -6.390625 7.015625 -6.390625 7.242188 -6.390625 C 7.46875 -6.390625 7.667969 -6.414062 7.894531 -6.441406 C 8.121094 -6.441406 8.320312 -6.414062 8.546875 -6.414062 C 8.796875 -6.414062 8.996094 -6.492188 9.171875 -6.492188 C 9.421875 -6.515625 9.648438 -6.492188 9.800781 -6.566406 C 10.023438 -6.640625 10.175781 -6.792969 10.25 -7.015625 C 10.300781 -7.167969 10.226562 -7.394531 10.199219 -7.644531 C 10.199219 -7.820312 10.226562 -8.042969 10.175781 -8.269531 C 10.148438 -8.472656 10.101562 -8.695312 10.050781 -8.921875 C 9.824219 -8.945312 9.546875 -8.898438 9.324219 -8.898438 C 9.074219 -8.921875 8.847656 -8.972656 8.597656 -8.972656 C 8.34375 -8.972656 8.121094 -9.023438 7.871094 -9.023438 C 7.617188 -9.046875 7.394531 -8.972656 7.144531 -8.996094 C 6.890625 -9.023438 6.667969 -9.121094 6.414062 -9.148438 C 6.242188 -9.148438 6.015625 -9.097656 5.8125 -9.097656 C 5.613281 -9.097656 5.414062 -9.121094 5.210938 -9.121094 C 4.863281 -9.121094 4.785156 -8.871094 4.585938 -9.097656 C 4.359375 -9.347656 4.613281 -9.421875 4.585938 -9.800781 C 4.585938 -10 4.535156 -10.25 4.535156 -10.476562 C 4.535156 -10.703125 4.585938 -10.953125 4.585938 -11.152344 C 4.585938 -11.351562 4.613281 -11.527344 4.636719 -11.753906 C 4.660156 -11.929688 4.636719 -12.128906 4.660156 -12.355469 C 4.6875 -12.554688 4.761719 -12.730469 4.785156 -12.957031 C 5.039062 -12.957031 5.261719 -12.980469 5.488281 -12.980469 Z M 5.488281 -12.980469 "/></g></g></g></svg>